<?xml version="1.0" encoding="UTF-8"?>
<svg id="Camada_1" data-name="Camada 1" xmlns="http://www.w3.org/2000/svg" version="1.1" viewBox="30 95 950 210">
  <defs>
    <style>
      .cls-1 {
        fill: #4a4b46;
        stroke-width: 0px;
      }
    </style>
  </defs>
  <path class="cls-1" d="M107.6,173.1l25,54.3h-9.1l-8.1-17.7h-22.8l-8.4,17.7h-4.5l25.6-54.3h2.3ZM94.1,206.3h19.6l-9.6-21-9.9,21h0Z"/>
  <path class="cls-1" d="M140.4,174.3h8.9v49.6h26.7v3.4h-35.7v-53.1h.1Z"/>
  <path class="cls-1" d="M221.5,174.3v3.4h-28v19h18.7v3.4h-18.7v23.8h28v3.4h-36.9v-53.1h36.9Z"/>
  <path class="cls-1" d="M229.9,227.4h-4.7l22.4-26.2-20.4-26.9h10.6l15.4,20.4,17.4-20.4h4.7l-19.9,23.3,22.6,29.8h-10.7l-17.5-23.3-19.9,23.3h0Z"/>
  <path class="cls-1" d="M306.6,173.1l25,54.3h-9.1l-8.1-17.7h-22.8l-8.4,17.7h-4.5l25.6-54.3h2.3ZM293.2,206.3h19.6l-9.6-21-9.9,21h-.1Z"/>
  <path class="cls-1" d="M339.4,174.3h5l34.8,38.8h.4v-38.8h3.9v54.3h-2.1l-37.7-43.2h-.3v41.9h-4v-53.1h0Z"/>
  <path class="cls-1" d="M398.5,174.3h17.7c5.4,0,10.1.5,14.1,1.5,3.9,1,7.2,2.6,9.8,4.9,3,2.6,5.2,5.5,6.7,8.8s2.3,6.9,2.3,10.9-.7,7.2-2,10.5-3.3,6.1-5.9,8.6c-2.6,2.4-5.8,4.4-9.6,5.8-3.8,1.4-8.2,2.1-13.2,2.1h-19.8v-53.1h-.1ZM407.4,223.5h9.5c3,0,5.8-.5,8.4-1.5s4.9-2.5,6.9-4.4,3.5-4.3,4.6-7.2c1.1-2.8,1.7-6.1,1.7-9.9s-.5-6.3-1.6-9-2.6-5.1-4.5-7.1-4.2-3.5-6.9-4.6c-2.7-1.1-5.6-1.6-8.7-1.6h-9.5v45.3h.1Z"/>
  <path class="cls-1" d="M461.5,174.3h18.4c3.2,0,6,.3,8.4,1s4.4,1.6,6,2.9c1.6,1.2,2.8,2.7,3.6,4.4.8,1.7,1.2,3.5,1.2,5.5s-.3,3.2-.9,4.6c-.6,1.4-1.5,2.7-2.6,3.9s-2.5,2.2-4.1,3-3.4,1.5-5.3,2l19.3,25.7h-10.4l-18.5-24.9h-6.2v24.9h-8.9v-53.1h0ZM470.5,199.8h5.2c2,0,3.9-.3,5.5-.8,1.7-.5,3.2-1.3,4.4-2.3s2.2-2.2,2.9-3.5,1-2.9,1-4.7-.3-3.1-.8-4.4c-.5-1.3-1.3-2.5-2.3-3.4s-2.2-1.7-3.6-2.2-2.9-.8-4.5-.8h-7.8v22.1h0Z"/>
  <path class="cls-1" d="M534.1,173.1l25,54.3h-9.1l-8.1-17.7h-22.8l-8.4,17.7h-4.5l25.6-54.3h2.3ZM520.7,206.3h19.6l-9.6-21-9.9,21h0Z"/>
  <path class="cls-1" d="M618.5,174.3v3.4h-25.9v19h18.7v3.4h-18.7v27.2h-8.9v-53.1h34.8Z"/>
  <path class="cls-1" d="M626.6,174.3h8.9v53.1h-8.9v-53.1Z"/>
  <path class="cls-1" d="M680.7,176.9c-3.2,0-6.2.6-8.9,1.7-2.7,1.1-5,2.8-7,4.9-2,2.1-3.5,4.7-4.6,7.7s-1.6,6.4-1.6,10.1.6,7.1,1.8,10.1,2.8,5.6,4.9,7.7c2.1,2.1,4.5,3.7,7.3,4.9,2.8,1.1,5.8,1.7,9,1.7s4.4-.3,6.3-.9,3.5-1.5,5-2.7v-21.8h8.9v23.3c-1.5.8-3.1,1.6-4.7,2.2s-3.3,1.2-5.1,1.6c-1.8.4-3.8.8-6,1s-4.7.3-7.4.3-5.7-.3-8.4-1c-2.6-.7-5.1-1.6-7.3-2.8-2.3-1.2-4.3-2.6-6.1-4.3s-3.4-3.5-4.6-5.5c-1.3-2-2.2-4.2-2.9-6.5s-1-4.7-1-7.2.3-4.9,1-7.3c.7-2.4,1.6-4.6,2.8-6.7,1.2-2.1,2.7-4,4.5-5.7s3.8-3.2,6-4.5,4.6-2.2,7.2-2.9c2.6-.7,5.4-1,8.3-1s5.4.4,7.8,1.1c2.4.8,4.6,1.8,6.5,3,2,1.3,3.7,2.7,5.2,4.3s2.8,3.4,3.9,5.1l-3.8,2.6c-2.2-4.3-4.7-7.4-7.5-9.4-2.7-2-5.9-3-9.4-3h-.1Z"/>
  <path class="cls-1" d="M715.1,174.3h8.9v34.5c0,2.3.4,4.4,1.2,6.4s1.9,3.7,3.3,5.2c1.4,1.5,3.2,2.7,5.2,3.5s4.3,1.3,6.8,1.3,4.8-.4,6.8-1.3,3.8-2,5.2-3.5,2.5-3.2,3.3-5.2,1.1-4.1,1.1-6.4v-34.5h3.9v34.5c0,2.7-.4,5.3-1.3,7.7s-2.3,4.5-4.1,6.3c-1.9,1.8-4.3,3.2-7.2,4.3s-6.5,1.6-10.6,1.6-6.9-.5-9.7-1.6-5.2-2.5-7.1-4.3c-1.9-1.8-3.4-3.9-4.3-6.4-1-2.4-1.5-5.1-1.5-7.8v-34.2h0Z"/>
  <path class="cls-1" d="M812,174.3v3.4h-28v19h18.7v3.4h-18.7v23.8h28v3.4h-36.9v-53.1h36.9Z"/>
  <path class="cls-1" d="M822.9,174.3h8.9v53.1h-8.9v-53.1Z"/>
  <path class="cls-1" d="M846.8,174.3h18.4c3.2,0,6,.3,8.4,1s4.4,1.6,6,2.9c1.6,1.2,2.8,2.7,3.6,4.4s1.2,3.5,1.2,5.5-.3,3.2-.9,4.6-1.5,2.7-2.6,3.9-2.5,2.2-4.1,3-3.4,1.5-5.3,2l19.3,25.7h-10.4l-18.5-24.9h-6.2v24.9h-8.9v-53.1h0ZM855.8,199.8h5.2c2,0,3.8-.3,5.5-.8s3.2-1.3,4.4-2.3,2.2-2.2,2.9-3.5c.7-1.4,1-2.9,1-4.7s-.3-3.1-.8-4.4c-.5-1.3-1.3-2.5-2.3-3.4s-2.2-1.7-3.6-2.2c-1.4-.5-2.9-.8-4.5-.8h-7.8v22.1h0Z"/>
  <path class="cls-1" d="M919.3,173.1l25,54.3h-9.1l-8.1-17.7h-22.8l-8.4,17.7h-4.5l25.6-54.3h2.3ZM905.9,206.3h19.6l-9.6-21-9.9,21h0Z"/>
</svg>