<?xml version="1.0" encoding="UTF-8"?>
<svg id="Camada_1" data-name="Camada 1" xmlns="http://www.w3.org/2000/svg" version="1.1" viewBox="0 0 1580 1180">
  <defs>
    <style>
      .cls-1 {
        fill: #f7f6ed;
        stroke-width: 0px;
      }
    </style>
  </defs>
  <path class="cls-1" d="M844.7,209.7c-1,.9-.8,5.6.2,7.2.6.9.4,2.3-.6,3.8-1.1,1.7-1.3,3.3-.7,6,.4,2.1.6,4.2.5,4.7-.1.6-.4,8.5-.5,17.7-.3,15-.6,17.1-2.5,20.2-1.1,1.9-2.1,4.3-2.1,5.4s-.6,2.7-1.3,3.7c-1.2,1.7-7.1,1.8-112.6,1.8s-111.4-.1-113.2-1.8c-1.8-1.6-2.1-1.6-3.5-.2s-1.5,7.9-1.4,53.3c0,37.8-.2,52.1-1.1,53.1-.9,1.1-4.4,1.4-14.9,1.4s-13.9.2-14.4,1.7c-.4.9-.2,2.1.3,2.6s7.3,1.1,15.2,1.3c7.8.2,14.4.6,14.6.8.6.5.4,123.2-.3,182.6-.5,51.7-.3,50.2-6,46.5-1.4-.9-4.9-2-7.7-2.6-2.9-.5-7.7-1.6-10.7-2.4-6.3-1.7-37.6-2.1-47.5-.5-10.1,1.6-26.7,4.8-31.5,6.1-9.1,2.4-21.6,6.1-25,7.4-1.9.7-7.3,2.5-12,4-8.2,2.5-16,5.3-22.7,8.1-1.7.8-3.5,1.4-4,1.4-2.8,0-53.1,23.8-73.3,34.6-4.7,2.5-11.4,6.1-15,8s-7.2,3.9-8,4.4-10.4,6-21.3,12.2c-24.6,14-23.3,13.2-39.2,23.7-3.8,2.5-7.7,4.9-8.5,5.2-3,1.3-26.5,17.5-47.3,32.5-6.2,4.5-13.6,9.9-16.5,12-10.9,7.8-34.8,27.3-38.9,31.5-5.4,5.8-8.3,11.4-8.3,16.5s2.8,9,9.5,10.5c8,1.8,31-1.2,54.5-7.2,2.5-.6,7-1.7,10-2.4s10-2.5,15.5-4,12.5-3.3,15.5-4,7.8-1.9,10.5-2.7c5.5-1.7,11.1-3.2,19.5-5.2,3-.8,10-2.6,15.5-4.1s12.5-3.3,15.5-4c7.3-1.7,17.5-4.3,22.5-5.7,2.2-.6,6.5-1.6,9.5-2.3,5-1.2,11.3-2.8,33-8.7,4.1-1.1,10-2.6,13-3.3,9.9-2.3,18.4-4.5,23.5-6,5.5-1.6,14-3.9,22.5-5.9,3-.8,10-2.6,15.5-4.1s12.5-3.3,15.5-4c13.5-3.2,19.8-4.8,23.5-6,2.2-.8,5.8-1.7,8-2s5.8-1.2,8-2,6.3-1.8,9-2.3c5.2-1,15.5-3.5,24-5.7,2.8-.8,8.2-2.1,12-3,9.4-2.2,18.5-4.4,21.3-5.2,2.8-.7,2.9,1.5.2,4.9-1.1,1.4-2.4,3.6-3,4.9s-2.2,4.2-3.5,6.4c-1.4,2.2-2.9,5.1-3.5,6.5-.5,1.4-1.5,3.2-2,4-.6.8-1.5,2.6-2,4-.6,1.4-1.4,3.2-1.9,4-.6.8-2.7,4.8-4.8,8.8-5.8,11.1-6.4,12.1-12.5,21.2-3.1,4.7-7.8,10.8-10.5,13.6-6.1,6.4-17.2,14-22,14.9-2,.4-4.6,1.3-5.7,2.1s-2.9,1.4-4,1.4c-1.8,0-1.8-.5-1.3-7.5.6-6.5.4-7.6-1.1-8.4-1.1-.6-2.4-.6-3.5,0-1.5.9-1.7,3-1.7,18.4v17.5h-27.7c-15.3,0-28.8.3-30,.6-3.4.9-3.1,5.2.4,6,1.4.4,14.7.4,29.5.1,19.8-.4,27-.2,27.5.6.7,1,1.3,13,1.2,23.2,0,1.6,0,6.8-.1,11.3,0,8.8,1,11.5,3.6,9.3,1.4-1.2,1.9-6.8,1.5-16.1-.1-3.1-.1-6.6.1-10.5.1-1.7.1-5.9.1-9.5s.3-6.8,1.6-7.8c1.3-.9,11.5-1.1,45-.9,23.8.2,43.5.6,43.9,1s.2,4.5-.5,9.1c-1.7,11.2.2,14.6,7.9,14.6s7.9-4,11.5-13.1c4.7-12,.8-11,39.4-10.7l33.6.3.7,5c.5,2.7.7,5.4.7,6-.1,1.1-.2,73.2-.1,75.5.1.8-.1,4.1-.4,7.3-.5,4.6-.2,6.2,1.1,7.7,1.5,1.7,1.5,2,0,4.4-1.3,1.9-1.5,3.7-1.1,6.8.3,2.4.6,5.2.6,6.3-.2,5.6-.4,56.9-.2,63,.1,3.8-.2,10.6-.6,15-.7,7.8-.8,8-3.2,7.8-1.4-.2-14-.4-28-.5l-25.5-.3-.3,2.7c-.2,1.8.1,2.8,1,2.8s17.1.1,36.5.2c40.4.3,38.6.6,39.8-8.5.4-2.9,1.2-6.3,1.7-7.7,1.2-3.1,4.6-21.8,5.9-32,.5-4.1,1.6-11.6,2.4-16.5.8-5,1.7-11.7,2-15,.6-5.5,4.1-14.5,5.6-14.5s1.8,3.4.5,4.9c-1.1,1.3-1.4,7.7-1.5,35.1-.1,34.5-.5,46.2-1.6,48-.3.5-2.8,1-5.4,1-5,0-8.9,1.9-7.7,3.8.4.7,3.3,1.2,6.9,1.2,7.7,0,9.5,1,8,4.2-.5,1.3-.7,3.2-.3,4.3s.6,6.7.4,12.4,0,10.9.5,11.5c.6.7.6,1.7.1,2.6-1.7,2.6-1.1,5.8,1,6.5,4.5,1.4,4.8-.3,4.5-21-.3-22.5-1.2-20.8,10.8-20.5,11.1.3,10.9.4,10.5-2.7l-.3-2.8-9.6.4c-6.2.2-9.9-.1-10.3-.8-.4-.5-.9-10.4-1.1-21.8-.5-24.8-.5-21-.1-31.3.2-4.7-.1-9-.6-9.7-.6-.7-.5-2,.2-3.3.8-1.4.9-3.6.4-5.9-.4-2-.6-4.1-.4-4.6.6-1.9.9-15,.3-16.8-.4-1.4-1.1-1.7-2.9-1.3-3.2.8-3,.1.6-3.6,2.7-2.6,3-3.6,3-8.9s-.5-6.8-1.2-7.8c-.9-1.5-.9-2.8.2-6,.7-2.2,1-5.6.7-7.5-.7-4.1,1.7-27.9,3.1-31.6.5-1.4,1.3-5.7,1.6-9.5.4-3.9,1.3-9.5,2.1-12.5.7-3,1.6-8.7,2-12.5.4-3.9,1.2-7.6,1.7-8.2,1.4-1.7,105.3-1.9,106.3-.2.8,1.2-1.3,13.5-2.7,16.2-.5,1-1.5,5.3-2.3,9.7s-1.8,8.7-2.3,9.7-1.3,4.3-1.7,7.3-1.2,6.6-1.7,8c-.6,1.4-1.6,6.1-2.4,10.5s-2.1,10.5-2.9,13.5c-1.8,6.4-2.2,28.9-.6,31.8.6,1.1,2.4,2.5,4,3.2,7.5,3.1,13.6-2.4,22.5-20.4,3.6-7.3,6.6-14,6.6-14.9s.4-1.8.9-2.2c.5-.3,1.5-2.2,2.1-4.3.7-2,2.7-7.5,4.5-12.2,5.2-13.5,11.4-33.2,15.8-50.2.7-2.6,1.7-5.2,2.3-5.8.9-.9,15.4-1.1,52-.9,28,.1,60,.3,71.2.3,15.6.1,20.5.4,21.1,1.5.5.7.7,5.5.6,10.6-.3,10.4.9,14.1,3.8,11.6,1.3-1,1.5-3.2,1.3-11.4-.2-5.6-.1-10.8.1-11.5.4-.9,7.2-1.2,29.3-1.2s28.9-.1,31.1-2q2.4-2,.5-3.5c-1.7-1.3-6.8-1.5-31.3-1.5h-29.3l.4-81.8c.2-44.9.4-82.4.4-83.2.1-17.8-1.1-56.7-1.9-57.6-.8-1-9-1.3-33.2-1.5-17.7-.1-34.4-.3-37.2-.3h-5c0-.1-.3,30.1-.3,30.1l-.2,30.3-2.3.4c-4.3.8-17.3,2.8-26.7,4.1-5.2.7-10.8,1.8-12.3,2.4-5.9,2.3-7.2.3-4.3-6.2.8-1.8,2.2-5.9,3.1-9.2s2.2-8.3,3-11c.8-2.8,2.4-8.2,3.5-12,1-3.9,2.7-9.3,3.5-12,.9-2.8,2.2-7,2.9-9.5,3.6-11.8,7-23,8.6-27.5,1-2.8,2.3-6.6,3-8.5s1.8-5.8,2.6-8.5c.7-2.8,1.9-7,2.7-9.5,1.8-5.4,3.4-11.5,5.2-19.5,2.4-10.3,6.6-24.8,7.8-27.4,1.6-3.2,2.7-3.7,18.7-8.6,2.5-.7,7.7-2.5,11.5-4,3.9-1.4,9-3.2,11.5-4,8-2.5,14.4-4.6,18-6.1,1.9-.7,5.3-1.8,7.5-2.3,4.3-1.1,11.8-3.4,17.5-5.6,3.5-1.3,8.8-3,25.5-7.9,5-1.5,10.6-3.2,12.5-3.8s6-1.7,9-2.4c9.2-2.2,17.3-4.3,22-5.8,2.5-.8,6.3-1.8,8.5-2.1,2.2-.4,5.6-1.2,7.5-1.9,1.9-.8,5.8-1.7,8.5-2,2.8-.4,7.3-1.4,10-2.1,5.3-1.5,18.6-4.3,27-5.6,8.8-1.3,20.5-1.1,20.5.5s-5,5.3-21.3,17.1c-3.7,2.8-8.9,6.6-11.5,8.5-2.5,1.9-6.7,4.8-9.3,6.5-11.2,7.2-12.9,8.6-13.5,11.1-1,4.1.7,7.8,3.8,8.2,5.3.6,47.1-25.8,59.4-37.6,6.9-6.6,9.4-11,9.4-16.5s-2.6-10.1-8.8-12c-8-2.6-9.8-2.7-18.9-1.7-20.9,2.2-26.1,3.1-45.3,7.7-3.6.8-9.2,2.1-12.5,2.8-7.8,1.8-13.6,3.3-21.1,5.6-3.3,1.1-6.8,1.9-7.7,1.9s-4.3.9-7.4,1.9c-3.2,1.1-7.7,2.3-10,2.6-2.4.4-4.5,1.1-4.8,1.5-.3.5-3.1,1.4-6.3,2-3.1.7-6.8,1.8-8.2,2.5s-4.2,1.5-6.4,1.9c-2.1.4-5.2,1.3-7,2-3.1,1.3-15,5-19.6,6.1-1.4.3-4.1,1.2-6,2-1.9.7-7.5,2.6-12.5,4-4.9,1.5-10.6,3.3-12.5,4-1.9.8-5.1,1.9-7,2.4-6.1,1.7-14.6,4.9-18,6.6-5,2.6-5.7.9-3.2-7.9,3.1-10.4,2.9-16-.4-19.1-1.4-1.3-3.5-2.7-4.6-3.1-2.8-.9-7,2.5-8.4,6.7-3.4,10.2-4.5,13.8-5.3,17.9-2.1,10.1-3.9,13.5-8.4,15.7-10.9,5.3-13.3,6.3-15.3,6.3s-3.3.9-4.7,2-3.1,2-3.9,2-3.1.9-5.3,2-4.4,2-5,2-2.7.9-4.8,2c-2,1.1-4.2,2-4.8,2s-4.7,1.7-9.2,3.8c-4.5,2.2-9.9,4.4-11.9,5.1-2.1.7-4,1.7-4.3,2.2-.4.5-2.2.9-4,.9h-3.5l.7-4.8c.8-6.3,1.6-7.1,6.3-6.5,3.5.5,4,.3,4-1.5s-2.5-3.5-5.1-2.2c-1.6.9-2.2.6-3.6-1.8-1.9-3-2-7.2-1-39.7.1-5.5-.1-10.5-.6-11.2s-.4-2.7.3-4.9c1-2.9,1-4.5,0-7.4-.8-2.4-.9-4.4-.3-5.6s.8-8.7.6-16.9c-.2-8.3-.4-15.9-.4-17s.2-3.4.6-5c.3-1.7,0-4.1-.8-5.5-1.1-2.1-1.1-2.9.2-5.2,1.2-2.1,1.3-3.5.5-6.6-.6-2.1-.7-4.7-.3-5.8.4-1,.5-3.8.2-6-.3-2.5-.1-4.4.6-4.8.6-.4,12.8-.8,27.1-.9,26.7-.2,29-.6,27.6-4.3-.5-1.4-1.6-1.6-7.1-1.1-3.6.2-6.7.2-6.9-.2-.6-.8-23.8-.7-25.2.2-.6.3-2.5.1-4.2-.5-2.7-1-3.7-1-6.2.5-2.8,1.7-2.9,1.7-4.4-.5-1.3-2-1.8-9.3-1.6-23.6v-7.5c0-.6.2-4.8.4-9.2s0-8.8-.6-9.8c-.5-1.1-.6-2.3-.1-3,.7-.9,1-31.6.4-37-.2-1.3-3.9-.7-5.5.8-1.1,1.1-1.3,2.2-.7,3.8.5,1.2.7,8.7.5,16.7-.1,9.3.1,14.9.8,15.8.8.9.8,1.6,0,2.4-1.5,1.5-1.6,8.4-.2,9.3.6.4.4,1.5-.5,2.9-1.3,1.9-1.3,2.5.1,4.4,1.2,1.7,1.3,2.6.5,3.6-.7.8-.9,4.5-.7,9.6.2,4.6,0,9.4-.5,10.7-.6,1.6-.5,3.2.2,4.4.8,1.5.7,2.6-.5,4.3-1.4,2.2-1.9,2.3-12.2,1.9-6-.2-11.1-.6-11.3-.9-.5-.4-.8-6.6-.9-18.4-.1-.8,0-12.3,0-25.5v-26.5c-.1-1.4-.1-4.5,0-7,.1-5.4-.7-14.3-1.7-18.7-.6-2.9-.4-3.4,1.7-4.2,2.9-1.1,23.3-.9,24.4.2.5.4.8,2,.9,3.5,0,2.2.5,2.7,2.5,2.7s2.6-.6,2.8-2.5c.2-1.4.8-2.9,1.3-3.4s11-1,23.4-1.1c21.8-.2,25.7-.7,24.1-3.3-.3-.6-9.9-1-23.5-1s-23.5-.3-24.1-.7-.9-1.8-.5-3.4c.3-1.6,0-3.4-.9-4.6q-1.5-2-3.8.3c-1.9,1.9-2.1,2.5-1,4.2,1,1.6.9,2.1-.6,2.9-3.2,1.7-22.4,1.9-25,.2-1.1-.7-1.2-2.2-.1-8.7.7-4.4,1.8-8.9,2.6-10.1.7-1.2,1.3-3.1,1.3-4.3s.9-2.8,2-3.7c1.1-1,2-3,2-4.5s.7-3.1,2-3.8c1.1-.6,2-2.1,2-3.3s.7-3.3,1.6-4.6c1.2-1.6,1.3-2.6.5-3.4-1.6-1.6-4.5,1.5-6,6.2-.6,2.1-1.8,4.4-2.6,5.1s-1.5,1.8-1.5,2.6c0,1.8-2.1,2.9-2.9,1.5-.9-1.4-.6-17.2.4-22.4.6-2.9.3-4.2-.9-5.6-1.4-1.6-1.5-2.3-.5-3.9,2.2-3.5-.8-9.2-3.4-6.5ZM804.6,284.5c4.5-.2,8.6-.5,9.1-.8.6-.4,1.7-.1,2.6.6,1.4,1.1,1.4,1.6-.8,5.7-2.6,4.9-4,7.8-5.5,11.2-.5,1.3-1.4,3-1.9,3.8s-1.8,3.5-2.9,6c-2.6,5.8-7.1,15.1-8.2,17-1,1.8-3.4,6.5-5.1,10-.6,1.4-1.5,3.2-2,4s-1.2,2.2-1.5,3c-2.1,5-5.8,13-7.5,16.1-1,2-1.9,4.3-1.9,5.2s-.6,2-1.4,2.6c-.8.7-1.7,2.4-2.1,3.9s-1.2,3.4-1.9,4.2c-.8.8-1.8,2.8-2.3,4.5-1.1,3.4-3.5,4.3-6.9,2.4-2.1-1.1-2.6-.9-4.3,1.2-1.7,2.2-2.1,2.2-4.5,1-2-1.1-3.1-1.2-5.1-.3-4,1.8-6.1,1.4-7.3-1.3-1.4-3.1-5.2-3.3-7-.5-1.1,1.8-2.3,2-10,2h-8.8l-1.1-3c-1.5-4-3.1-3.8-4.9.6-1.4,3.2-1.8,3.5-4.2,2.8-1.5-.4-5.4-.8-8.6-.8-5.1-.1-6-.4-6.9-2.4-1.4-3-5.9-3-7.2,0-.9,2.1-1.8,2.3-9.7,2.5-8.5.3-8.7.2-10-2.4s-3.6-4-4.7-1c-1.3,3.4-1.5,3.4-10.6,3.8-7.9.4-8,.4-9.3-2.4-1.6-3.3-3.5-3.5-5.5-.4-1.4,2.2-2.1,2.3-11.4,2.3h-9.8c0-.1-.6-5.2-.6-5.2-.8-6.2-1-88.8-.3-92.6.5-2.3,1.1-2.8,3.7-2.8s4.3-.1,5.7-.2c2-.1,26.8,0,35.8.2h4c.9.1,5.5.1,10.2,0h10c14.8.4,109.3-.5,110.2-1.1s1.9-.4,2.7,0c.9.4,5.3.7,9.7.6ZM835,285.7c0,2.1-3.2,7.8-5.2,9.3-2.4,1.9-10.7,17.5-10.8,20.4-.1.6-.9,2.9-2,5.1s-1.9,4.4-2,5c0,1.1-3.5,10.1-6.2,16.1-1,2.2-1.8,4.7-1.8,5.5s-.6,2.3-1.4,3.4c-.7,1.1-1.7,3.1-2,4.5-.9,3-4.3,12.3-6.1,16.5-.7,1.6-2.4,6.1-3.8,10-1.4,3.8-6.3,16.4-10.8,28-8.1,20.8-15,38.7-17.4,45.5-6.8,18.9-10.6,29.1-12.6,33.6-1.1,2.2-1.9,4.6-1.9,5.2s-.9,2.9-2,4.9c-1.1,2.1-2,4.5-2,5.3s-.6,2.4-1.4,3.5c-.7,1.1-1.7,3.1-2,4.5-.9,3-4.3,12.3-6.1,16.5-.7,1.6-2.5,6.4-4,10.5s-3.3,8.8-4,10.5c-.7,1.6-3.5,8.9-6.3,16-2.8,7.2-5.8,14.4-6.6,16-.9,1.7-1.6,3.4-1.6,4s-.9,2.8-2,5c-1,2.2-3.1,7.1-4.5,11-1.4,3.8-3,7.9-3.5,9-1,2.1-3.3,8.4-5.5,15-.7,2.2-2,5.3-2.9,7-.9,1.6-1.6,3.6-1.6,4.3,0,1.1-10,6.2-12.3,6.2s-3.3,1.2-6.2,2.6c-8.3,4.2-10.6,10.2-6.1,15.7,2.6,3.2,7.5,3.9,11.6,1.7,1.2-.6,2.4-.9,2.7-.7.2.3-.9,3.7-2.6,7.5-1.7,3.9-3.1,7.6-3.1,8.4s-.7,2.1-1.5,3.1c-.7,1.1-1.7,3.6-2,5.8-.4,2.1-1.1,4.1-1.6,4.4-.4.3-1.3,2.5-2,4.8-.6,2.3-1.9,5.6-3,7.3-1.6,2.6-2.7,3.3-7,3.8-2.8.4-6.9,1.4-9,2.3-2.1.8-4.5,1.3-5.2,1-1-.4-1.7-4.9-2.5-16.4-.9-12.5-1.8-17.8-4.1-25.2l-3-9.5,3.6-7c2-3.9,4-7.8,4.4-8.6.5-.8,2.3-4.4,4-8s3.5-7.2,4-8c.4-.8,3.4-6.5,6.4-12.5,6.2-12.1,8.4-16.2,9.7-18.5.5-.8,1.5-2.9,2.3-4.5.9-1.7,1.9-3.7,2.4-4.5s2.1-4.2,3.6-7.5,3.1-6.7,3.6-7.5,1.4-2.6,1.9-4c.6-1.4,1.5-3.2,2-4,.6-.8,1.5-2.6,2.1-4,1.7-4.1,5-11.4,5.9-13.2.5-.9,2.6-4.7,4.6-8.5,1.9-3.7,4.7-8.6,6-10.8s2.9-5.1,3.5-6.5,1.5-3.2,2-4,1.4-2.6,2-4,1.5-3.2,2-4,1.4-2.6,2-4,1.5-3.2,2-4,1.4-2.6,2-4,1.5-3.2,2-4,1.4-2.6,2-4,1.5-3.2,2-4,2.5-4.7,4.5-8.5c2-3.9,4.2-8.1,4.9-9.5.8-1.4,3.3-6.6,5.5-11.5,2.3-5,4.6-9.7,5.1-10.5s1.4-2.6,1.9-4c.6-1.4,1.5-3.2,2-4,.6-.8,1.5-2.6,2-4,.6-1.4,1.5-3.2,2-4,.6-.8,1.5-2.6,2.1-4,2.1-4.8,9.2-19.5,10-21,.5-.8,1.4-2.6,1.9-4,.6-1.4,1.5-3.2,2-4,.6-.8,1.5-2.6,2-4,.6-1.4,1.5-3.2,2-4,.6-.8,1.5-2.6,2-4,.6-1.4,1.5-3.2,2-4,.6-.8,1.5-2.6,2.1-4s1.5-3.2,2-4,1.4-2.6,1.9-4c.6-1.4,1.5-3.2,2-4,.6-.8,1.5-2.6,2-4,.6-1.4,1.5-3.2,2-4,.6-.8,1.5-2.6,2-4,.6-1.4,1.5-3.2,2-4,.6-.8,1.5-2.6,2.1-4s1.5-3.2,2-4,1.4-2.6,2-4,1.5-3.2,2-4c1.2-2.2,10.8-21.8,12.9-26.5,1-2.2,2.7-6.1,3.9-8.6s2.1-5.3,2.1-6.2.9-3.1,2-5c1.8-3.1,2.4-3.3,7-3.3s5,.2,5,2.3ZM844.7,295.6c.2,4.7.2,5.8-.3,14.9-.2,3.8-.5,8.8-.6,11-.2,4.5,0,36.6.2,44.7.3,9.7-.2,18.8-1.1,21.1-1,2.4-.9,3.1,1,5,1.4,1.5,1.7,2.7,1.1,3.3s-1.3,33.6-1,61.9c0,1.6,0,9.3-.1,17-.1,22.2-.1,45.7.1,49.5.2,7.2-.8,9.9-4.3,10.8-2.5.6-3.2,1.4-3.2,3.3s.6,2.5,2.5,2.7c1.4.2,3,.8,3.5,1.3s1,6.3,1,13c0,10.3.3,12.2,1.7,13.3,1.6,1.2,1.6,1.5-.3,5.2-1.4,2.7-1.8,4.9-1.4,7.4.3,1.9.5,9.6.4,17-.2,7.4-.3,16-.3,19v5.5c-.1,0-4.8-.3-4.8-.3-2.5-.2-5.6.1-6.7.7-1.5.8-2.7.7-5-.7-2.9-1.6-3.3-1.6-6.2,0-2.8,1.6-3.2,1.6-5.4.2-1.9-1.2-3.2-1.4-5.7-.6-1.8.5-6.9,1-11.2,1.1-4.4.1-8.8.7-9.8,1.2-1.1.6-2.1.9-2.2.7-.4-.5,3.2-25,4-26.8.3-.8,1-4.9,1.5-9,1-8.4,4.2-27.2,6.4-37,.8-3.6,1.9-10.3,2.4-15s1.4-9.7,2-11.2c.5-1.5,1.3-6.2,1.7-10.5.3-4.3,1.2-10.3,1.9-13.3s1.6-8.6,2-12.4,1.3-8.9,2-11.4c.8-2.5,1.7-7,2-10.1.4-3.1,1.3-8.1,2-11.1.8-3,1.7-8.4,2-12,.4-3.6,1.3-9,2-12s1.6-8.7,2-12.5c.3-3.9,1.3-9.5,2-12.5.8-3,1.7-8.4,2.1-12s1.1-7.6,1.6-8.9c.4-1.2,1.5-6.7,2.3-12.1s1.9-10.9,2.4-12.1c.5-1.3,1.2-5.3,1.5-8.9.4-3.6,1.5-10.6,2.5-15.5,3-14.3,5.1-29.5,5.1-36.2s1.4-11.7,3.3-11c.6.2,1.3,2.1,1.4,4.3ZM809.6,399.3c-.8,3.4-2,8.9-2.6,12.2-.5,3.3-1.7,8.5-2.5,11.5s-1.5,6.8-1.5,8.5-.7,5.4-1.5,8.1-1.9,8.9-2.5,13.9c-.5,4.9-1.4,10.5-1.9,12.3-.6,1.8-1.3,6.5-1.6,10.5-.4,4-1.3,9.7-2,12.7-.8,3-1.7,8.2-2,11.5-.4,3.3-1.3,8.5-2,11.5-.8,3-1.7,8.9-2,13-.4,4.1-1.3,10-2,13-.8,3-1.9,9.7-2.5,14.9s-1.3,9.8-1.6,10.2c-.2.4-1.1,5-1.8,10.1-1.7,11.4-4.2,26.6-6.1,37.5-.8,4.5-1.5,9.3-1.5,10.8s-.5,3.5-1,4.6c-1,1.7-2.2,1.9-14.7,1.9s-22.8,1.2-36.3,4.5c-3,.8-5.6,1.3-5.7,1.1-.4-.3,3.2-9.6,5.1-13.1.9-1.7,1.6-3.7,1.6-4.5s.6-2.4,1.4-3.5c.7-1.1,1.7-3.1,2-4.5.9-2.8,4.2-12,6.1-16.5.7-1.7,2.5-6.4,4-10.5s3.1-8.2,3.5-9.1c.5-.9,2.3-5.4,4-10,1.8-4.6,3.6-9.2,4.1-10.1.4-.9,2.4-5.6,4.3-10.5,1.9-4.8,4.1-10.2,5-11.8.9-1.7,1.6-3.7,1.6-4.5s.6-2.4,1.4-3.5c.7-1.1,1.7-3.1,2.1-4.5.3-1.4,2.5-7.2,4.7-13,2.3-5.8,4.9-12.9,6-15.7,4.5-12.6,6.2-17,8-20.9,1-2.2,1.8-4.7,1.8-5.5s.6-2.3,1.3-3.4,2.8-5.8,4.6-10.5c1.7-4.7,3.6-9.4,4.1-10.5,1.1-2.3,7.5-20.8,9.5-27.5,2.4-7.7,4.5-13.4,6-16.2.8-1.4,1.5-3.1,1.5-3.6s.6-2.3,1.2-3.9c1.2-2.8,1.3-2.7,1.6,2,.2,2.7-.4,7.7-1.2,11ZM632.9,392.7c2.1.5,2.3,1,1.8,4.6-.3,2.2-.2,5,.3,6.3.7,1.7.4,2.9-.9,4.5-1.6,2-2.7,2.2-11,2.2s-9.5-.3-9.9-.7c-.7-.8-1.2-15.6-.5-16.9.5-.9,16.8-.9,20.2,0ZM659.8,400.4c.2,4.6-.1,8.3-.8,9-1.6,1.6-17.2.8-18.6-.9-1.2-1.6-1.2-13.3,0-15.3.5-.9,3.4-1.2,9.9-1l9.2.3.3,7.9ZM683.7,392.8c1.4.9,1.5,12.8.2,15.4s-2.2,1.6-9,1.3c-4.4-.1-8.5-.7-9.1-1.3-1.3-1.3-1.7-13.3-.5-15,1-1.3,16.3-1.7,18.4-.4ZM710.7,393.2c1.1,1.4,1,15.4-.1,16.5s-4.3.5-8.8.4c-6.1-.1-8.6-.6-9.5-1.7-1.2-1.7-1.2-13.2,0-15.2.6-.8,3.6-1.2,9.1-1.2s8.7.4,9.3,1.2ZM735.7,392.8c.8.5,1.2,3.4,1.2,7.9,0,9.4-.8,10.1-11.4,9.3l-8-.5-.7-7.5c-.4-4.7-.3-8,.4-8.7,1.2-1.4,16.4-1.8,18.5-.5ZM763.8,394.3c.2,1-.8,3.5-2.2,5.6-1.4,2-2.6,4.4-2.6,5.2,0,2.2-5.4,5.9-7.1,4.9-.8-.5-2.4-.7-3.7-.3-3.5.9-6.5-2.3-5.7-6.3.3-1.8,0-4.4-.7-5.9-2-4.4.7-5.6,12.2-5.3,8.2.3,9.5.5,9.8,2.1ZM872.9,393c1.5.7,1.8,2.1,1.6,7.4-.1,5.4-.5,7-2.4,9-2,2.1-2.7,2.3-4.4,1.4-1.2-.6-5.2-.9-9.9-.6-9,.5-10.4-.4-9.6-7.1.3-2,0-4.9-.5-6.5-.7-2.1-.6-3,.4-3.7,1.9-1.2,22.6-1.1,24.8.1ZM632.5,416.2c2.3,1,2.5,1.6,2.5,8.1,0,9.9-.9,10.7-12.1,10.7s-9-.4-9.5-1.2c-1.2-1.9-1.2-16.1-.1-17.6,1.2-1.6,15.7-1.6,19.2,0ZM658.8,416.2c1.2,1.2,1.7,14.3.6,17.2-.9,2.3-16.6,2.3-18.4.1-1.5-1.8-2.1-14.3-.8-16.8.7-1.4,2.3-1.7,9.1-1.7s8.8.5,9.5,1.2ZM683.3,416.3c3.2,2.3,2.9,16.5-.4,18.7-1.1.7-16.6-.4-17.5-1.3-1.1-1-1.8-12-1-15.1.6-2.4,1.1-2.5,8.4-2.9,4.2-.1,8-.4,8.3-.5s1.3.4,2.2,1.1ZM873.8,416.9c2.3,1.2,2.3,1.3.6,3.2-1.3,1.5-1.6,2.9-1,7.3.5,4.3.2,5.8-1.2,7.5-1.5,2-2,2.1-5.1,1-2-.7-6-.9-10.2-.6-4.8.4-7.1.2-7.6-.6-1-1.5-1.1-18-.2-18.7,1.6-1.1,22.5-.4,24.7.9ZM710.7,417.2c.9,1.5,1.3,12.2.6,15.5-.5,2.2-1,2.3-9.3,2.3s-9.1-.4-9.9-1.3c-1.3-1.7-1.3-14.7.1-16.5.7-.8,3.9-1.2,9.4-1.2s8.5.4,9.1,1.2ZM735.8,425c.2,6.3-.1,8.7-1.1,9.5-.8.6-4.7.8-9.3.5l-7.9-.5-.5-8c-.4-4.4-.2-8.6.4-9.3.6-.9,3.4-1.2,9.5-1l8.6.3.3,8.5ZM752,417.7c0,1-1.1,3.6-2.5,5.8-1.3,2.2-2.5,4.8-2.5,5.7,0,1.5-3.5,4.8-5.1,4.8s-.6-3.6-.5-8.1c.3-9,.9-9.9,6.9-9.9s3.7.4,3.7,1.7ZM684.3,440.9c2.3,1.9,2.1,16.8-.2,18.1-1.6.8-17.6.8-18.4,0s-.6-4.5-.8-9.4c-.4-8.9-.4-9,2.1-9.6,4.5-1.1,15.6-.5,17.3.9ZM872.5,440.2c2.2,1,2.5,1.6,1.9,4.1-.3,1.6-.7,5.4-.9,8.4-.1,3-.7,5.9-1.3,6.5-1.4,1.4-22.2,1.1-23.9-.4-.9-.7-1-1.5-.2-3,.6-1.1.9-5,.7-8.6l-.3-6.7,10.5-.6c5.8-.3,10.6-.6,10.7-.7s1.4.3,2.8,1ZM633,441c2.1,1.3,1.5,16-.8,17.7-1.9,1.6-17.8,1.8-18.7.3-.5-.9-.9-12.5-.6-17.8.1-1.5,17.7-1.7,20.1-.2ZM659.8,448.8c.2,5.3-.1,8.9-.9,9.8-1.2,1.4-15.5,1.9-17.6.6-1.3-.8-2.1-16.2-.9-18,.5-.9,3.3-1.2,9.9-1l9.2.3.3,8.3ZM711.5,450v9.5l-8.9.3c-5.1.2-9.4-.2-9.9-.7-1-1-1.8-16.8-1-18.4.3-.4,4.8-.6,10.1-.5l9.7.3v9.5ZM737.5,441.4c1.9,1.4,1.9,1.5-.3,5.9s-2.2,5.2-2.2,6.2-1,2.9-2.2,4.2c-1.8,1.9-3.2,2.3-8.3,2.3s-6.6-.5-7.3-1.2c-1.3-1.3-1.7-16.9-.5-18.1,1.3-1.4,18.8-.8,20.8.7ZM632.9,465.6c.5.5,1.1,4.4,1.3,8.7.6,9.6.3,9.9-12.4,9.5l-9.3-.3v-8.5c-.1-4.7.2-9,.6-9.5.9-1.3,18.6-1.2,19.8.1ZM658.8,465.6c.9.3,1.2,2.7,1,9.1l-.3,8.8h-19l-.3-8.9c-.2-5.7.1-9.2.8-9.6,1.1-.7,15.3-.2,17.8.6ZM684.2,465.7c2.2,2.4,2,16-.2,17.3-1.7,1.1-14.9,1.3-17.4.4-1.3-.5-1.6-2.3-1.6-9.5v-8.8l7.3-.4c3.9-.1,7.9-.4,8.8-.5s2.3.6,3.1,1.5ZM710.7,465.3c1.4.9,1.3,15.3-.1,17.5-1,1.7-17.2,1.7-18.2,0-1.1-1.7-1.4-15-.4-16.8.6-1.2,2.7-1.5,9.2-1.5s8.9.4,9.5.8ZM729.3,464.8c.3.4-.5,2.7-1.8,5.2s-3.1,5.8-3.9,7.5c-2.3,4.5-5.4,8.1-6.2,7.2-1.3-1.3-1.5-17.8-.3-19.3s11.4-2,12.2-.6ZM873,465.6c.7.7.7,2.1,0,4.4-.6,1.9-.8,5.6-.5,8.1.5,3.3.3,4.9-.6,5.5-1.4.8-21.8.8-22.6,0s-1-16-.2-17.6,2.9-1.5,11.8-1.5,11.5.5,12.1,1.1ZM872.9,497.8c-.1,5.3-.6,9.4-1.4,10.5-1.1,1.6-1,2.4.7,5.3,1.3,2.2,1.7,4.1,1.2,5.6-.4,1.3-.6,4.5-.5,7.2.3,8.6.5,8.5-11.5,8.2-5.8-.2-11-.8-11.5-1.3-1.3-1.3-1.8-15.8-.7-19.7.5-2.1.3-3.7-.7-5.3-1.2-1.8-1.3-2.8-.4-4.4.6-1.1.9-5.1.7-8.7l-.3-6.7h9.7c5.3,0,10-.3,10.3-.7.4-.4,1.6-.3,2.6.3,1.7.9,1.9,2.1,1.8,9.7ZM633,490.5c.6.7,1.3,4.7,1.5,8.9.4,9,.8,8.8-13,8.4l-9-.3.3-8.9c.1-5,.6-9.2,1.1-9.5,1.8-1.2,18,0,19.1,1.4ZM658.8,490.2c1.3,1.3,1.7,16.4.4,17.2s-18.1,1-18.9.3c-.8-.8-.5-16.6.3-17.9s16.9-.9,18.2.4ZM685,491.6c.6,1.4,1,5.4,1,8.9,0,7.7-.2,7.8-12.5,7.3l-8-.3-.3-7.9c-.2-4.4-.1-8.5.2-9.3.4-.9,3-1.3,9.6-1.3s9.1.1,10,2.6ZM711.6,491.1c1.6,1.8,1.6,2.2-.1,7.5-.9,3-2.7,6.6-3.9,7.8-1.9,2.1-2.7,2.3-8.6,1.7l-6.5-.6-.3-7.9c-.2-4.4-.1-8.4.1-9.1.3-.7,3.6-1.1,9-1.2,7.2-.1,8.9.2,10.3,1.8ZM633.3,514.9c1.3,1,1.7,3.1,1.7,8.7s-.1,7.5-2.5,8.4c-3.3,1.3-18.4.9-19.3-.4-.9-1.5-1.1-13.7-.2-16.1.7-1.8,1.7-2,9.7-2s9.5.4,10.6,1.4ZM659.1,515.1c1.3,2.1,1.1,15.6-.3,16.5-2,1.3-16.9,1.2-18.1-.1-1.3-1.3-1.6-12.5-.4-16.1.7-1.9,1.4-2.1,9.3-1.9,6.1.1,8.9.6,9.5,1.6ZM684.4,514.6c1.9,1.8,1.7,1.1,2.1,9.7.3,6.2.1,6.9-1.8,7.6-3.2,1.1-18.6.6-19.8-.6-1.7-1.7-.7-16.2,1.1-17.3,2.6-1.7,16.6-1.2,18.4.6ZM703,516.5c0,1.9-.4,3.6-1,4-.5.3-2.3,3.5-4.1,7-4.6,9.3-5.9,8.5-5.9-3.6s.8-10.6,6.5-10.7q4.5,0,4.5,3.3ZM688.4,539.1c.8.7-1.9,9.5-3.6,11.3-.4.6-.8,1.8-.8,2.7,0,3.5-2.8,4.9-9.8,4.9s-7.4-.5-8.2-1c-2-1.3-2.4-14.6-.4-17.7,1.2-1.9,2.4-2.3,8.6-2.5,7-.3,12.3.6,14.2,2.3ZM632.8,539.4c1.2,1.2,1.7,3.7,1.8,8.7.1,5.8-.1,7.1-1.7,7.9-2.5,1.4-18.6,1.3-19.5-.1-1-1.7-1.2-14.2-.2-16.4.8-1.8,1.8-2,9.5-1.9,6.4.1,8.9.6,10.1,1.8ZM659,538.9c1.4,2.8,1.3,16.8-.2,17.7-2.2,1.4-16.9,1-18.1-.4-1.1-1.4-1.3-16.4-.2-18.2.3-.6,4.4-1,9-1,7.3,0,8.6.3,9.5,1.9ZM953,539.7c0,1.2-2.6,8.8-5.5,16.8-1.5,3.8-3.3,9.2-4,12-1.4,5-3.7,12.3-5.6,18-.6,1.6-1.9,5.9-2.9,9.5-3.5,12.4-5.8,20.5-7.4,25.5-6.1,19.7-6.4,20.8-12,40.5-1.3,4.7-3.1,10.9-3.9,13.9-3.3,11.2-4,8.6-4.3-15.6-.1-11.5-.7-22.4-1.3-24.3s-1.1-5.4-1.1-7.8c0-5.7-5.4-18.9-11.4-27.7-1.1-1.7-4.8-5.8-8.1-9.3-5.5-5.8-5.8-6.4-4.2-7.6,1.1-.9,1.7-2.7,1.7-5.5s-.2-4.1-2.7-4.1-3.7.7-4.7,1.5c-1.7,1.3-1.8,1.8-.7,4.1,2.1,4.7,0,4.9-9.7,1.2-3.7-1.3-2.1-3.1,5.3-6,3.8-1.4,7.1-3.1,7.3-3.7s.9-1.1,1.5-1.1c1,0,20.4-9,23.7-11.1.8-.5,2.6-1.4,4-2,1.4-.5,4.3-1.9,6.6-3,2.2-1,4.4-1.9,4.9-1.9s1.6-.6,2.4-1.3c2.1-1.8,12.7-5.7,15.4-5.7s2.8-.7,3.7-1.5c3-2.7,13-5.6,13-3.8ZM871.8,541.3c.6.5,1.2,2.8,1.2,5.2s.5,4.5,1.6,4.9c2.4.9.6,2.5-7,6.6-7.1,3.7-8.1,4.3-13.6,7.8-1.9,1.2-3.7,2.2-4,2.2s-.6-6.1-.7-13.4l-.2-13.5,3.2-.3c5.4-.7,18.1-.3,19.5.5ZM678.8,564.8c.2,1.2-.5,3.4-1.5,4.9-3.2,4.7-4.3,6.7-5.8,10-1,2.1-2.2,3.3-3.5,3.3-2.2,0-2.6-1.2-3.5-11.2-.6-7.7-.4-8,7-8.9,6.5-.8,6.9-.7,7.3,1.9ZM658.8,564.4c1.4.9,1.6,13.4.3,15.5-1.1,1.7-15.9,2.4-17.8.9-1.5-1.2-1.8-14.9-.4-16.4,1.2-1.1,16.1-1.1,17.9,0ZM633.9,565.4c.8.9.8,2.1.2,3.9-.6,1.4-.7,4.1-.4,6,.8,5.4-1,6.4-11.4,6.3h-8.8c0-.1-.6-7.6-.6-7.6-.3-4.1-.3-8.1-.1-8.8.6-1.8,19.5-1.7,21.1.2ZM856.3,590c3.5,1.6,7,3,7.8,3,2.2,0,11.9,4.8,11.9,5.9s-.5,1.3-1.1,1.7c-.8.5-1,3.5-.6,10,.9,12.6.9,12.5-14.1,12.2l-11.5-.3-.3-17c-.2-15.8,0-18.5,1.2-18.5s3.3,1.3,6.7,3ZM632.5,589.2c.6.3,1,4.4.9,9v8.3l-10.2.3c-5.6.1-10.2-.1-10.3-.5-.4-5.1-.3-16,.3-16.8.7-1.1,17.6-1.4,19.3-.3ZM659,589.5c1.6,1.9-.1,14.1-2.2,16.1-1.7,1.6-14.3,2.5-15.7,1.1s-1.5-16.9-.4-18c.3-.4,4.3-.7,8.8-.7s8.6.4,9.5,1.5ZM667,588.9c0,1.2-2,2.5-2.7,1.8s.6-2.7,1.8-2.7.9.4.9.9ZM882.6,600.8c1.7,1.1,12.4,15.3,12.4,16.4s1,3,2.2,5.6c2.3,4.6,2.3,5.2,2,40.7-.2,27.1-.5,36.1-1.5,36.7-2.1,1.4-8,2.8-14.2,3.5-3.2.3-7,1.2-8.5,2-1.4.7-4.8,1.3-7.6,1.3s-8.4.9-12.5,1.9-9.6,2.2-12.4,2.6c-6.7.9-17.4,4.4-20.6,6.7-7.1,5.2-7.3,11.9-.3,15,4.1,1.8,4.7,1.8,12.6.3,4.6-.9,11.1-2.2,14.5-3s9.1-1.5,12.7-1.5c6.6,0,10.3,1.6,15.2,6.4,5.5,5.6,10.1,17.1,9,22.8-1,5.6-3.4,15.1-5,19.8-.8,2.5-2.4,7.9-3.6,12-2.7,9-5.7,19-7.5,24.5-.7,2.2-2.5,8.7-3.9,14.5-1.5,5.8-3.5,13.1-4.5,16.3l-1.7,5.7-53.2.2c-33.2.2-53.5-.1-54.1-.7-1.1-1.3.9-15,5.9-41,.6-2.8,1.7-9.8,2.5-15.8.8-5.9,1.6-11.1,1.9-11.6s1.2-6.2,2-12.7c2.7-22.2,4.7-35.9,6.1-42.9.8-3.9,1.7-9.5,2-12.5,1.1-9.8,3.8-22.1,5.1-23.4s3.5-1.6,6.3-1.9,7.5-1.3,10.4-2.1c13.5-3.9,18.7-4.9,24.9-5,5.5-.1,6.8-.4,7.2-1.8.2-1,1.2-2,2.3-2.4,1-.3,4.1-1.5,6.8-2.6,2.8-1.2,6.6-2.2,8.5-2.2,3.4-.1,3.5-.2,3.8-4.8.2-2.6,1-5.2,1.8-5.9,2.1-1.7,21.1-2,22.4-.3,1.1,1.2.8,17-.3,18.1-.4.3-4.2.5-8.5.4s-8.9.2-10.2.7c-1.8.7-3.1.5-4.6-.5-3-1.9-5.4-.7-5.4,2.8s2.2,4.6,5.6,2.4c1.8-1.2,2.9-1.4,3.7-.6s2.8.8,5.2.4c2.4-.3,5-.1,6,.4,1.2.7,2.7.7,4.6-.1,2.5-.9,3.2-.7,5.1,1.2s2.1,2.5,1,4.2c-1.7,2.8-1.5,8.9.3,9.7.9.3,2.5-.3,3.6-1.3,1.9-1.7,2-3.5.3-9.6-.3-.9.4-2.6,1.6-3.8,1.7-1.7,2.3-1.8,4-.8,1.5,1,2.6.9,5.4-.5,2-.9,3.6-2.1,3.6-2.6,0-1.2-5.3-2.2-9.5-1.9l-3,.3-.7-9c-.5-7.1-.4-9.3.8-10.6,1.9-2.1,1.8-3.5-.6-6.7-1.6-2.1-1.8-3.3-1.1-5.8.5-1.7.6-6.3.3-10.2-.6-8.8.5-10.6,5.7-9.7,4.7.8,8.2-1.5,6.5-4.2-.9-1.4-2.2-1.7-5.7-1.5-6,.4-6.7-1-6.7-12.6s.6-11.5,3.6-9.4ZM633.4,614c.5.5.8,4.2.7,8.2-.2,8-1.4,9.9-6,9.6-1.4-.1-3.6.2-4.8.6-2.4.8-6.8-1.1-9.4-4-2.1-2.4-2.4-14-.4-15.2,1.8-1,18.8-.3,19.9.8ZM652.7,613.4c.4.3-.8,3.4-2.5,6.9-1.7,3.4-3.4,7.2-3.7,8.4-.6,2.3-3.7,3.9-5.5,2.8-1.5-.9-1.3-18.2.3-18.9,1.5-.7,10.5-.1,11.4.8ZM803,628c7.4,0,14.4.1,15.5.1s7.4,0,14,.2c11.4.2,12,.3,11.7,2.2-.2,1.1-.4,7.3-.4,13.8s-.4,12-.9,12.2c-.4.3-2.1-.9-3.6-2.7-5.7-6.5-10.3-10.5-15-12.7-13.3-6.3-21.2-9-28.7-9.8-6.5-.6-9.6-1.7-9.6-3.4s.8-.8,1.8-.5c.9.3,7.8.5,15.2.6ZM872.8,628.8c1,.2,1.1,2.9.6,12.4-.4,6.8-1,12.8-1.5,13.3-1,1.3-21.6,1.9-22.4.6-.9-1.6-1.3-26-.4-26.3,1-.3,21.4-.3,23.7,0ZM578.9,631.1c12.8,2.6,19.9,5.8,25.8,11.5,3.5,3.3,4.4,4.7,3.7,6.1-.4,1-.9,14-.9,29-.1,23.5-.3,27.4-1.7,29-.9,1-2.1,3.6-2.7,5.9-1.6,6-4.8,8.4-13.8,10.4-9.7,2.2-19.3,4.6-25.7,6.5-2.6.8-5.6,1.5-6.6,1.5s-4.6.8-8.1,1.8c-3.5,1.1-10.9,2.9-16.4,4.2-5.5,1.2-12.9,3.1-16.5,4-3.6,1-10.1,2.7-14.5,3.8s-10.9,2.8-14.5,3.7c-3.6,1-9,2.3-12,3-3,.8-10,2.5-15.5,4s-12.9,3.3-16.4,4.1-6.7,1.6-7.1,1.9c-.5.3-3.2,1-6.2,1.5-2.9.5-7.5,1.6-10.3,2.4-11.3,3.3-20.6,5.6-22.2,5.6s-5.2.9-9.3,2.1c-4.1,1.1-10.9,2.9-15,4s-10.4,2.9-14,4-7.2,1.9-8.1,1.9-3.6.7-6,1.5c-2.4.9-7.1,2.2-10.4,3-6.3,1.4-14.6,3.6-23,6-4.6,1.2-10,2.7-27.5,7.1-3.6.9-8.5,2-10.9,2.5s-6.7,1.6-9.5,2.3c-2.8.8-8.2,2.2-12.1,3.1-3.8.9-9.5,2.3-12.5,3-17.9,4.4-32.2,7.3-38.5,8-3.3.3-9.7,1.3-14.3,2.2-4.5.9-8.5,1.3-8.8,1-1.6-1.6,1.8-5.6,12.4-14.6,27.2-23.2,61.8-47.8,107.8-76.6,5.2-3.3,11-6.9,12.7-8,1.8-1.2,13.3-7.8,25.7-14.8s23.2-13.2,24-13.7,10.1-5.1,20.5-10.3c17.3-8.6,25.6-12.6,37-17.7,2.2-1,6.5-2.9,9.5-4.3,11.4-5.1,40.6-16.3,51-19.5,23.7-7.3,30.2-8.9,45-11.2,6.9-1.1,13.2-2.2,14-2.4s8.3-.4,16.5-.5c11.7-.1,17.3.4,25.4,2ZM1013.3,633.6c19.2.6,20.7.8,20.7,2.5s-1,2.4-2.2,3c-1.3.7-4.4,2.8-7,4.8-9.9,7.5-13.5,10.1-14.4,10.1s-3.4-2.3-6.4-5-5.8-5-6.1-5-3.1-2-6.2-4.4c-3.2-2.5-6.3-4.6-6.9-4.8-.7-.3-.8-1-.4-1.7.5-.8,2.1-1.1,4.5-.7,2,.3,12.9.8,24.4,1.2ZM634.8,637.6c2,.4,3.8.2,4.8-.6,2.4-2.1,4,.3,1.7,2.6-1,1.1-2.9,4-4.1,6.6-2.5,5.1-3.9,5.9-4.9,3-.3-.9-2.4-3.8-4.5-6.3-5.9-7.3-5.2-7.8,7-5.3ZM1043,656.9c0,9.9.2,18.5.5,19.3.3.7-.1,2.2-.9,3.3-1.3,1.8-1.5,1.8-3.7.3-1.3-.9-4.4-3.5-6.9-5.8s-7.1-6.2-10.2-8.7-5.9-5.2-6.3-6.1c-.6-1.6,1-3.2,3.3-3.2s1.2-.4,1.2-.9,1.6-1.7,3.5-2.8c3.3-1.7,7.5-4.9,13.8-10.6,5.6-4.8,5.7-4.5,5.7,15.2ZM991.2,646.6c14.9,11.9,13.7,9.8,13.1,23.3-.3,6.4-1,12.2-1.6,12.8-.6.8-3.4,1.3-7.1,1.3s-7.8.5-9.9,1.1c-6.6,1.8-6.7,1.6-6.7-23.2s-.5-25.5,12.2-15.3ZM767.3,649.6c-.2,3.9-.9,9-1.8,11.3-.8,2.3-1.7,7.5-2.1,11.7-.4,4.1-1.3,8.1-2,8.8s-3.2,1.6-5.6,2-6.5,1.3-9.3,2.1c-2.7.7-8.6,2.3-13,3.4s-10.7,2.7-14,3.6-8.2,2-11,2.6c-2.7.5-7.8,2-11.2,3.2-4.9,1.7-6.5,1.9-7.4,1s-.9-1.6.3-3c.9-1,1.9-2.9,2.3-4.3.3-1.4,2.2-6.3,4-11,1.9-4.7,3.7-9.9,4.1-11.5.3-1.7,1.2-3.9,1.9-5.1.7-1.1,1.5-3.1,1.7-4.5.3-2.7,6.7-6.3,13-7.3,2.1-.3,5.2-1.3,7-2,4.5-2,15.9-4.7,24.3-5.8,3.9-.5,9-1.3,11.5-1.7q7.5-1.4,7.3,6.5ZM803,647.3c9.2,3.2,14.5,6.2,19.1,10.8s5.1,7.9-2.1,9.6c-7.3,1.6-13.5,3.2-19,5-2.5.8-7,2-10,2.7-3,.8-6.8,1.9-8.4,2.5-3.9,1.6-5.1.2-3.8-4.1.6-1.8,1.6-8.5,2.2-14.8,1.5-16.3.9-15.4,8.9-14.6,3.6.4,9.5,1.7,13.1,2.9ZM618.4,656.2c7.4,11.7,7.9,15.3,3,21.9-1.3,1.8-2.4,3.8-2.4,4.5,0,1.8-4.4,8.3-5.4,8.1-.5-.2-1-9.4-1.2-20.5-.5-23.1-.2-23.8,6-14ZM1027.1,676.3c1.3.7,2.5,2.2,2.7,3.3.3,2-.3,2.2-8,2.6-4.6.3-8.9.3-9.5.1-1.7-.7-1.8-14.4-.2-16s2.6.1,6.9,3.8c3.1,2.8,6.7,5.6,8.1,6.2ZM630,688.9c1.4,7.7,1.3,23.6-.2,24.9-.7.5-4,1.3-7.3,1.7s-7.5,1.3-9.3,2.1c-2.9,1.2-3.4,1.1-3.9-.2-.3-.9.4-3.5,1.6-5.8,1.1-2.4,2.1-5,2.1-5.9s.4-1.8.9-2.1c.5-.4,2.6-4,4.6-8.1,2.1-4.2,4.2-7.8,4.6-8.1.5-.3.9-1.3.9-2.3s.5-2.2,1.2-2.9c1.9-1.9,3.6.5,4.8,6.7ZM759.3,700.1c-.2,3.5-.9,9.5-1.7,13.4-.8,3.8-1.7,9.5-2.1,12.5-.5,5.1-2.1,14.9-6.1,37-.8,4.7-1.9,12.2-2.4,16.8-.5,4.5-1.2,8.7-1.5,9.2s-1.2,5.7-2,11.7c-.9,5.9-2,12.4-2.5,14.3-.4,1.9-1.1,6.4-1.4,10-.6,5.9-3.3,22.5-4.2,25.8s-3.9,1.3-16.8,1c-9.3-.2-16.9-.7-17.4-1.3-.6-.6-.6-3.8,0-8.5.8-5.5.7-7.9-.2-9.3-.9-1.5-.9-2.6,0-4.7.9-2.2.9-3.7,0-6.5-.9-2.7-.9-3.9,0-5,.6-.7,1.1-3.7,1-6.7v-8.8c.1-2.8.1-16.1,0-28,0-.8.1-5.8.1-11,.1-5.2.1-10.6.1-12-.1-1.4-.3-10.1-.5-19.3-.4-16.9-1-19.6-4.1-18.4-1.9.7-1.7-3.9-1.4,58.2.1,24.7.1,47.6,0,50.9-.1,3.2.3,6.5.9,7.2.7.9.7,1.9-.1,3.3-.6,1.2-.9,5.5-.7,10.1.2,5-.1,8.4-.7,8.9-1.2.9-64.4.6-65.3-.3s.2-2.1,1.1-4,1.6-4,1.6-4.8.6-2.2,1.4-3.3c.7-1.1,1.7-3.1,2-4.5.9-2.9,4.3-12.1,6.2-16.5.7-1.7,2.7-6.8,4.4-11.5,1.8-4.7,3.6-9,4-9.5.4-.6,1.1-2.6,1.5-4.5s1.1-4,1.5-4.5c.4-.6,3.1-7.1,6-14.5,2.8-7.4,5.8-14.9,6.5-16.5.8-1.7,1.7-4.1,2-5.5.4-1.4,1.3-3.9,2-5.5,2.9-7.2,5.5-14.1,5.5-14.9s3.5-9,6.3-14.6c1.6-3.3,9.3-7.2,13.2-6.7,1.7.3,5.5-.5,8.4-1.6,3-1.1,9.1-2.9,13.5-3.9,12.8-3,18.7-4.5,25.1-6.2,3.2-.9,6.8-1.6,8-1.6,1.1-.1,3.1-.7,4.5-1.5,3.9-2.2,4.5-1.3,4.3,5.6ZM1043.8,701.8c.4,5.8-.9,7.3-6.1,6.6-2.8-.4-4.8-.1-6.1.9-1.5,1.1-2.4,1.2-4.2.2-2.6-1.3-41.6-1.3-44.8,0-1.2.5-3,.2-5.2-1-2-1-4-1.5-5.1-1-2.8,1.1-15.8,1.5-17.4.4-1.2-.8-1.2-1,.1-1.9,1.4-.9,10.4-1.6,16.3-1.2,1.5.1,4-.4,5.5-1.2,3.2-1.6,7.1-2.2,24.2-3.7,6.9-.6,15-1.4,18-1.9,3-.4,9.8-.7,15-.6h9.5c0,.1.3,4.4.3,4.4ZM948,710.5c0,.8-.7,1.5-1.5,1.5-1.6,0-2-1.2-.8-2.3,1.1-1.2,2.3-.8,2.3.8ZM938.1,714.1c1.6,1.6,2.8,1.9,4.7,1.4,1.5-.4,3.8-.6,5.2-.5s3.9.1,5.5.1c1.7-.1,5.4-.1,8.4-.1s5.9-.4,6.7-1.1c.9-.8,2.2-.8,4.6,0,4.3,1.4,50.3,1.3,54.1-.1,1.9-.8,3.1-.7,4.1.1.8.7,3.5,1.1,6,1,2.5-.2,4.9,0,5.2.4.8.7,1.2,24.4.6,26.5-.4,1.1-10.2,1.3-51.8,1-45.2-.2-51.6,0-52.9,1.3s-1.4,2.2-.6,4.2c.6,1.4,1,7.9,1,14.4.2,46.2.1,59.7-.6,60.4s-3,.9-5.8,1.1q-5,.3-5,3.8v3.5l10.8.6c6,.4,11.2,1,11.6,1.5s.5,4.5.2,8.9l-.6,8-23.5.5c-15.6.3-23.9.1-24.8-.5-.9-.8-1-2.2-.3-5.5,3.2-15.4,4-21,5-33.5,1.5-18.2,1.4-22.1-.5-34.6-1.7-11-1.4-22,.6-24.4.6-.7,1.8-3.6,2.5-6.2.8-2.6,2.7-8.6,4.3-13.3,1.7-4.7,3.3-10.3,3.7-12.5,1-6,1.9-6.7,8.4-6,4.2.5,6.1.3,7.6-.9,2.6-2,3.1-2,5.6.5ZM664.2,719.5c-.4,1.8-2.1,5.9-6.7,16-2.1,4.6-6.1,14.2-9,21.9-1.5,3.8-3.3,7.6-4.1,8.3-.8.8-1.4,2.5-1.4,3.9s-.5,2.4-1.1,2.4-.8-.9-.3-2.3c1.9-5.8,2.5-10.6,3.6-28.6s1.4-19.4,3.3-20.1c12.2-4.4,16.2-4.8,15.7-1.5ZM897,720.4c0,2.7-2,12-2.8,12.8s-3.2-1.9-6.1-5.3c-2.9-3.3-5-6.3-4.7-6.6.7-.7,7.4-2,11.4-2.2,1.2,0,2.2.5,2.2,1.3ZM630.7,727.7c-.4,1.6-1.3,8.4-2.2,15.3-.8,6.9-2,15.4-2.6,19s-1.5,10.1-1.9,14.5c-.9,7.7-2.1,14.1-5.6,29-.9,3.8-2.1,9.9-2.8,13.5-2.4,14-3.1,5.7-3.1-39.1s-.1-44.8-1.8-46.6c-2.2-2.5-.9-3.8,4.8-4.9,2.2-.4,5.4-1.3,7-2,1.7-.7,4.3-1.3,5.9-1.4,2.6,0,2.8.2,2.3,2.7ZM606.9,731.9c.9.6,1,1.4.3,2.7-.5,1.1-.8,7-.6,13.4.3,9.1.5,32.7.4,55v14.5c0,6.6-.5,14.8-1.2,18.3-.9,4.8-.9,6.5,0,7.4s1.2,2.7,1.2,4.5c0,3.2-.1,3.3-4.2,3.3-7.4,0-9-.8-8.3-4.1.8-3.5-.8-6.5-3.7-7.5-1.3-.3-3-1.3-3.9-2-.9-.8-4-1.7-7-2.1-3-.3-6.6-1.2-8.2-2s-8.2-1.6-18.7-2c-8.8-.3-16-1-16-1.5s.4-.8.9-.8c1.8,0,18.1-17.3,22.2-23.7,6.3-9.7,6.8-10.5,8.4-14,.8-1.7,1.8-3.3,2.2-3.5.5-.1,2.3-3.2,4.1-6.8s3.8-7.2,4.3-8,1.4-2.6,2-4c.5-1.4,2.1-4.3,3.4-6.5s4-7.3,6-11.2c2-4,4-7.5,4.5-7.8s1.2-2,1.5-3.8c.8-3.6,5.1-8.7,7.4-8.7s2.2.4,3,.9ZM1039.6,749.3c.9.9-3.5,5.7-5.3,5.7s-2.2-.5-3.3-1.2c-1.5-1-2.2-.9-3.8.5-1,.9-3,1.7-4.4,1.7s-3.2.9-4.7,3.4c-1.2,1.8-2.1,4-2.1,4.9,0,3-2.3,6.7-4.6,7.3-1.2.3-2.5,1.1-2.7,1.8-.3.6-2.4,2.5-4.8,4.1s-7.8,6.1-11.9,10.1c-4.1,3.9-10.2,9.4-13.6,12-6,4.9-16.3,13.8-23.3,20.2-4.3,4.1-7.9,5.6-9.5,4.3-.9-.8-1.2-10.4-1-37.8.1-20.2.2-37,.3-37.3.2-.8,93.9-.6,94.7.3ZM1043.1,761.2c.4,3.9-.1,17-.6,17.8-.7,1.1-6.4,1.4-8.7.5-1.1-.4-1.4-2.2-1.2-6.8.2-3.4.3-6.8.4-7.4,0-.7,1.1-1.5,2.5-1.9,1.3-.3,2.9-1.2,3.6-2,1.4-1.7,3.9-1.8,4-.2ZM1028,774.1c0,5-1.2,6.8-3.4,5-1.3-1.1-1.4-9.1-.1-11.1,1.4-2.3,3.5,1.2,3.5,6.1ZM1016.3,776.6c1.1,1.1-.5,3.4-2.3,3.4s-3.4-1.5-2.5-3c.7-1.1,3.8-1.4,4.8-.4ZM1015.6,788c.7,1.5.9,4.9.5,8.5l-.6,6-7.4.3c-5.3.2-7.7-.1-8.2-1-1.5-2.3-1-12.2.7-14.6,1.4-2,2.3-2.3,7.7-2,5.5.3,6.3.6,7.3,2.8ZM1027.7,787.2c.8,1,1,8.3.4,15.1-.1.5-1.1.7-2.3.5-2.1-.3-2.3-.9-2.5-7.2-.3-8.2,1.7-11.9,4.4-8.4ZM1042.9,788.5c.4,1.1.5,4.8.3,8.2l-.4,6.2h-4.3c-2.3-.1-4.7-.4-5.2-.8-.6-.3-1.3-3.4-1.6-6.9-.6-7.5.3-8.9,6.3-8.7,3.3.1,4.5.5,4.9,2ZM992.4,802.7c-2.1,1.6-5.4,1.7-7.4.2s-1.3-1.2-.1-1.6c.7-.3,2.1-1.4,3-2.5s2.5-2.3,3.6-2.8c1.7-.6,2-.3,2.3,2.3.3,2.1-.2,3.5-1.4,4.4ZM891.2,814.2c-1.8,9.9-4.3,22.7-6.1,30.3-1.5,6.4-1.8,7-4.4,7.3-3.6.4-4.4-1.8-2.4-6.6,1.6-3.5,3.2-9.2,6.2-21.2,2.2-8.5,4.6-17.3,5.2-19,.4-1.2.7-1,1.6.7.7,1.6.7,4.2-.1,8.5ZM1042.5,816.1v7.4l-4.7.3c-3.8.2-4.7,0-5.2-1.5-.5-1.7-.9-9.2-.7-12,.1-1,6.6-2.2,9.6-1.8.6.1,1,3.4,1,7.6ZM989,810.5c.7.8,2.1,1.5,3.1,1.5,2.3,0,2.5.4,3.3,6.3.6,3.8.4,4.8-.9,5.3-2.3.9-2.9-.1-2.6-4.7.3-5.3-2.3-4.9-2.7.4-.4,4.7-2.1,5.9-7.9,5.5l-4.8-.3-.3-6.3c-.2-3.8.2-6.9.9-7.8,1.6-1.9,10.3-1.9,11.9.1ZM1016.1,815.5c1,8.7.4,9.3-8.3,9.1h-7.3c0-.1-.3-7.9-.3-7.9l-.3-7.8,7.8.3,7.8.3.6,6ZM1028.3,816.4c-.2,7.1-1.1,9.3-3.6,8.3-1.1-.4-1.5-2.4-1.5-7.4,0-7.9.3-8.5,3.1-8.1,2,.3,2.2.8,2,7.2ZM970.8,818.8c.4,2.9-1.1,4.8-4.6,5.5s-3.5.9-4.4,1.2c-3.1,1.2-2.1-2,1.8-5.9s6.7-4.3,7.2-.8ZM968.1,833.7c.7.7.8,1.7.1,3-.6,1.1-.7,2.5-.2,3.3,1,1.7.5,8.9-.7,10.1s-3.2.9-5.9.7l-4.9-.3v-8.5c-.2-4.7-.1-8.8.1-9.2.7-1.1,10.2-.4,11.5.9ZM991.8,833.5c3.8.9,3.7,3.1-.1,2.7-2.1-.2-2.8.3-3.3,2.1-1.1,4.4-.1,8.2,2.1,8.2s2.1-.8,2.5-4c.3-2.3.8-3.4,1.1-2.5,1,2.6-.2,9-2,9.8-.9.5-4.7.8-8.6.8h-7c0-.1-.3-8-.3-8-.4-10.8-.4-10.9,6.6-10.3,3.1.3,7.2.8,9,1.2ZM1015.5,841.5v9h-14.8l-.2-8.5c-.1-4.7,0-8.9.2-9.3.3-.4,3.7-.7,7.6-.5l7.2.3v9ZM1027.9,832.9c1,.7,1.2,2.8.8,9.2-.3,4.6-.6,8.5-.6,8.7-.1.2-1.1.2-2.3,0-1.9-.3-2.1-1-2.4-8.8-.2-5.8.1-8.7.9-9.2,1.5-1,1.9-1,3.6.1ZM1043.4,833.8c.3.9.2,4.2-.3,7.3-.5,3-.9,6.4-.8,7.5.2,1.5-.5,1.9-3.3,1.9s-3.5-.3-3.5-2.5-.3-3.4-.7-4.5c-.3-1.1-.9-3.7-1.3-5.8-.5-3.3-.3-3.8,1.7-4.7,3.9-1.5,7.6-1.2,8.2.8ZM523.4,839.1c-.7,1.2-5.4,1.2-5.4,0s3-1.9,4.7-1.3c.7.2,1,.8.7,1.3ZM562.1,839.1c1.3.7,6.2,1.5,10.8,1.8,9.2.7,12,2.5,5.4,3.6-2.1.3-4.8,1-6.1,1.6-3.6,1.5-31.2,1.2-31.2-.4s-1.4-2.4-3.1-3.8c-5.3-4.3-3.4-5.1,10.1-4.6,6.7.3,12.7,1,14.1,1.8ZM531.5,841.1c-.8,1.2-3.5,1.2-3.5,0s2.2-2,3.3-1.4c.4.2.5.9.2,1.4ZM522.3,844c1.7,1.5.2,4.4-2.6,5.1-4.2,1.1-5.7.2-5.7-3.8s0-3.4,3.8-2.7c2,.3,4.1,1,4.5,1.4ZM881.4,860.5c-.3,5-2.7,13.8-10.6,38-2.1,6.6-4.5,13.3-5.2,15-.8,1.6-1.8,4.3-2.2,5.9-.5,1.6-1.5,3.1-2.1,3.4-1.6.5-1.7-3.7-.2-9.3.6-2.2,1.7-6.9,2.4-10.5.8-3.6,2.1-9,3-12,2.5-9.1,6.5-26.7,6.5-28.4,0-2.5,3.8-5.8,6.3-5.4,1.7.2,2.2.9,2.1,3.3ZM734.2,859.7c.3,1-.1,3.4-.7,5.3-.7,1.9-1.5,6.7-1.9,10.7s-1.2,8.7-1.7,10.5-1.6,8.6-2.4,15c-.9,6.4-1.9,12.7-2.4,14s-1.2,5.2-1.5,8.8c-.4,3.6-1.3,8.7-2.1,11.5-.8,2.7-1.9,8.8-2.5,13.3-.6,4.6-1.5,9.4-1.9,10.5-.5,1.2-1.2,5.1-1.5,8.7-.4,3.6-1.3,8.5-2.1,11-.7,2.5-1.6,7.2-2,10.5s-1.3,7.5-2.1,9.4-1.7,5.9-2,9c-.4,3.1-1.1,6.5-1.7,7.5-.9,1.9-1,1.9-2.3.2-.8-1.1-1.1-4.1-.9-8.4.1-3.7-.2-7.2-.7-7.9-.6-.7-.5-1.9.2-3.2.8-1.5.8-2.7,0-4.2-.7-1.1-.9-3.2-.5-4.6,1.2-4.9,1.6-29.2.5-31.3-.6-1.1-.8-2.6-.3-3.3,1.1-1.8,1.2-38.9.1-41-.6-1.1-.6-2.3,0-3,1-1.4.8-24.4-.3-27-.4-1-.2-3.1.5-4.7,1.1-2.6,1-3.3-.5-5-1.5-1.6-1.5-2.2-.5-3.5.7-.9,1-2.7.7-4.5-1.1-5.4.6-6,17.3-6s14.9.2,15.2,1.7ZM702.2,1027.2c-.9.9-1.2.7-1.2-1.2s.3-2.1,1.2-1.2.9,1.5,0,2.4ZM855.5,510.1c-.7,1.1,2.5,2,4.6,1.4,1-.4,2.6-.2,3.6.4,2,1,5.7-.4,4.8-1.9s-12.4-1-13,.1ZM934.6,550.6c-.9.8-1.7,1.8-1.7,2.2-.1.4-.3,2-.5,3.6-.4,3.8-.7,4-5.8,3.7-2.9-.1-4.7.3-5.6,1.4-.8.9-2.9,1.5-5.6,1.5s-4.6.4-4.9,1c-.3.5-2.8,1-5.6,1q-4.9,0-4.9,3.3c0,1.8-.6,4.2-1.4,5.2-1.2,1.6-1.6,1.7-3,.6-.9-.7-1.6-1.9-1.6-2.7,0-1.9-2-2.8-3.3-1.5s-.6,1.2.6,1.7c2.3.8,2.1,1.7-.8,6.4-1.4,2.2-2.5,4.4-2.5,5,0,1.5,3.3,1.2,5.6-.5,4.8-3.7,8.8-.2,6.4,5.6-1,2.3-1,3.9,0,7.3.7,2.5.9,4.9.6,5.5-.4.5-.4,2.2,0,3.6.4,1.8,1.3,2.5,2.9,2.5,2.6,0,3.6-1.8,2.8-4.9-.3-1.2,0-4.2.6-6.7,1.1-4.4,1.1-4.8-1.4-7.4l-2.6-2.7,2.1-2.5c1.1-1.5,2-4.1,2-6s.6-3.7,2.3-4.5c7.5-3.4,10.1-4.3,13.3-4.3s4.5-.5,5.6-1.1c2.7-1.4,4,.4,3.4,4.8-.3,2,.1,3.6,1,4.4,2.2,1.8,4.4-.7,4.4-5.2s.5-4.9,1.1-6.3c.9-1.9.8-2.9-.4-4.6-1.1-1.6-1.3-2.9-.6-4.7,2-5.4.7-7.9-2.5-4.7ZM832.4,681.5q-1.9,1.5,0,3c2.5,1.9,5,1.9,6.6,0,2.4-2.9-3.3-5.5-6.6-3ZM874.5,212.4c-1.6,1.2-1.7,1.6-.6,3,1.7,2.1,4.7,2.1,5.5,0,.6-1.6-.9-4.4-2.3-4.4s-1.6.6-2.6,1.4ZM873.5,221.4c-1.7,2.5-1.1,5.4,1.4,7.3,1.4,1,1.4,1.3-.2,3-1.9,2.1-2.3,7.8-.7,8.8.7.4.8,1.1.1,1.8-.5.7-.9,4.1-.9,7.7s.4,7,.9,7.7c.7.7.6,1.4-.1,1.8-1.5.9-1.2,7.1.5,8.5,3.7,3.1,7-3.1,4-7.6s-1.3-2.9-.6-3.8c.6-.7,1.1-2.9,1.1-4.7-.1-1.9.1-9,.3-15.9s0-13.5-.5-14.8c-1-2.9-3.3-2.8-5.3.2ZM936.2,496.3c-1.5,1.7.1,4.2,2.3,3.3,1.8-.6,1.7-3.7-.1-4.3s-1.6.2-2.2,1ZM935.6,508.2c-.3,1.3-.4,5-.3,8.3.2,5.3.4,6,2.2,6s2-.7,2-8-.3-8-1.7-8.3c-1.1-.2-1.9.5-2.2,2ZM1073,569.1c0,1.1.5,1.7,1,1.4.6-.3,1-1.3,1-2.1s-.4-1.4-1-1.4-1,.9-1,2.1ZM1071.7,580.2c-.7,2.4.8,4.8,2.8,4.8s2.5-2.3,1.8-4.9c-.7-2.8-3.9-2.7-4.6.1ZM1071.8,592.5c-.9,2-.9,3.4.1,6,.9,2.6.9,3.9.1,5.6-.7,1.2-.9,3.7-.6,5.8.3,2,.6,4,.6,4.6-.1.5-.3,16-.5,34.4-.2,26.5-.6,33.6-1.7,34.3-.7.5-3.9.7-7,.5-4.3-.4-6-.1-6.9,1-2,2.3.8,3.3,6.7,2.7,8.3-1,9-.2,8.8,11,0,5.3-.4,9.9-.8,10.3s-3.8.6-7.5.5c-5.1-.3-7.1.1-8.1,1.2-2.3,2.9.3,4.3,7.6,4.3s7,.5,7.6,1.1,1,5.5.9,11.9c-.2,12,.3,14.3,2.9,14.3s3.1-2.3,2.9-14.1.2-11.2.6-11.8c.3-.6,1.6-1.1,2.8-1s10.8.1,21.4.1c17.4-.2,19.3-.4,20.2-2,2.3-4.3.5-4.7-22.6-4.7h-21.8l-.5-9c-.3-5-.4-9.6-.2-10.3.3-.9,5.8-1.2,23.2-1.2s22.9-.2,23.3-1.4c1.2-3-1.9-3.5-23.2-3.4-12.4,0-21.7-.4-22.3-1s-1-15.8-1-38.8-.4-38.8-.8-39.8c-.3-1-.2-3.8.3-6.2.8-3.2.7-4.7-.3-5.9-1.8-2.1-2.9-1.9-4.2,1Z"/>
</svg>