<?xml version="1.0" encoding="UTF-8"?>
<svg id="Camada_1" data-name="Camada 1" xmlns="http://www.w3.org/2000/svg" version="1.1" viewBox="30 210 950 120">
  <defs>
    <style>
      .cls-1 {
        fill: #f7f6ed;
        stroke-width: 0px;
      }
    </style>
  </defs>
  <path class="cls-1" d="M82.7,260.9c.7,0,1.4,0,2,.3.6.2,1.2.4,1.7.8s.8.8,1.1,1.4.4,1.2.4,2-.3,2-.8,2.8-1.4,1.3-2.5,1.5h0c.6.1,1,.3,1.4.5s.7.5.9.8c.2.3.4.7.5,1.2,0,.4.2.9.2,1.4v2.4c0,.4,0,.8.2,1.2s.2.7.4.9h-1.8c0-.2-.2-.4-.2-.6s0-.5,0-.7v-1.3c0-.6,0-1.2-.2-1.8,0-.6-.2-1.1-.5-1.6-.2-.5-.6-.9-1-1.1s-1-.4-1.8-.4h-6.2v7.6h-1.6v-17.1h7.8v-.2ZM82.6,269c.5,0,1,0,1.4-.2s.8-.4,1.2-.7.6-.6.8-1c.2-.4.3-.9.3-1.4,0-1.1-.3-1.9-.9-2.5s-1.5-.9-2.8-.9h-6.1v6.7h6.1Z"/>
  <path class="cls-1" d="M112.7,260.9v1.4h-10.2v6.2h9.6v1.4h-9.6v6.8h10.3v1.4h-12v-17.1h11.9Z"/>
  <path class="cls-1" d="M126.3,274.6c.3.6.7,1.1,1.2,1.4.5.4,1.1.6,1.8.8s1.4.2,2.2.2.9,0,1.5-.2c.5-.1,1-.3,1.5-.6s.8-.6,1.1-1.1c.3-.4.5-1,.5-1.6s-.1-.9-.3-1.2c-.2-.4-.5-.6-.8-.9-.3-.2-.7-.4-1.1-.6-.4-.2-.8-.3-1.2-.4l-3.8-.9c-.5-.1-1-.3-1.5-.5s-.9-.4-1.2-.8-.6-.7-.9-1.2c-.2-.5-.3-1-.3-1.7s0-.9.2-1.5.5-1.1.9-1.6,1-.9,1.8-1.3c.8-.3,1.8-.5,3-.5s1.7.1,2.4.3c.8.2,1.4.6,2,1s1,1,1.4,1.7c.3.7.5,1.4.5,2.3h-1.6c0-.7-.2-1.2-.4-1.7s-.6-.9-1-1.2c-.4-.3-.9-.6-1.5-.7-.6-.2-1.1-.3-1.7-.3s-1.1,0-1.6.2c-.5.1-1,.3-1.4.6-.4.3-.7.6-.9,1-.2.4-.4,1-.4,1.6s0,.7.2,1c0,.3.3.5.6.8.2.2.5.4.8.5s.6.2,1,.3l4.2,1c.6.2,1.2.4,1.7.6s1,.5,1.4.9c.4.3.7.8,1,1.3.2.5.3,1.1.3,1.8v.8c0,.4-.1.7-.3,1-.2.4-.4.7-.6,1.1-.3.4-.7.7-1.2,1s-1.1.5-1.8.7-1.6.3-2.6.3-1.9-.1-2.8-.3c-.9-.2-1.6-.6-2.2-1.1s-1.1-1.1-1.4-1.8c-.3-.8-.5-1.7-.4-2.7h1.6c0,.9,0,1.6.4,2.2h-.3Z"/>
  <path class="cls-1" d="M152,260.9v17.1h-1.6v-17.1h1.6Z"/>
  <path class="cls-1" d="M171.5,260.9c2.6,0,4.6.8,5.9,2.2,1.3,1.4,2,3.5,2,6.4s-.7,5-2,6.4-3.3,2.1-5.9,2.2h-5.9v-17.1h5.9ZM170.6,276.6c1.2,0,2.3-.1,3.2-.4s1.6-.7,2.2-1.3c.6-.6,1-1.3,1.3-2.2s.4-2,.4-3.3-.1-2.4-.4-3.3c-.3-.9-.7-1.7-1.3-2.2-.6-.6-1.3-1-2.2-1.3s-1.9-.4-3.2-.4h-3.5v14.4h3.5Z"/>
  <path class="cls-1" d="M203.8,260.9v1.4h-10.2v6.2h9.6v1.4h-9.6v6.8h10.3v1.4h-12v-17.1h11.9Z"/>
  <path class="cls-1" d="M218,260.9l10,14.5h0v-14.5h1.6v17.1h-1.8l-10-14.5h0v14.5h-1.6v-17.1h1.8Z"/>
  <path class="cls-1" d="M254.8,260.9v1.4h-6v15.7h-1.6v-15.7h-6v-1.4h13.6Z"/>
  <path class="cls-1" d="M268.1,260.9v17.1h-1.6v-17.1h1.6Z"/>
  <path class="cls-1" d="M288.5,260.9l6.7,17.1h-1.8l-2.1-5.3h-7.8l-2.1,5.3h-1.7l6.9-17.1h1.9ZM290.8,271.3l-3.3-8.8-3.4,8.8h6.7,0Z"/>
  <path class="cls-1" d="M308.4,260.9v15.7h9.6v1.4h-11.2v-17.1h1.6Z"/>
  <path class="cls-1" d="M353.5,277.6c-.9.5-1.8.7-2.8.7s-1.4-.1-2.1-.3c-.6-.2-1.2-.5-1.6-.9-.5-.4-.8-.9-1.1-1.5s-.4-1.3-.4-2.1.1-1.2.4-1.7.6-1,1-1.4.9-.8,1.4-1.1,1-.6,1.5-.9c-.2-.3-.5-.6-.7-.9s-.5-.6-.7-1c-.2-.3-.4-.7-.5-1.1s-.2-.8-.2-1.2,0-1,.3-1.4c.2-.4.5-.8.8-1.1.3-.3.7-.5,1.2-.7s.9-.3,1.5-.3,1,0,1.5.3.9.4,1.2.7.6.7.8,1.1c.2.4.3.9.3,1.4s0,1-.3,1.4c-.2.4-.4.8-.8,1.2-.3.4-.7.7-1.1,1s-.8.6-1.2.9l3.7,4.5c.2-.4.3-.8.4-1.3s0-1,0-1.6h1.5c0,.5,0,1.1-.2,1.9-.1.8-.4,1.5-.8,2.2l2.9,3.5h-1.9l-1.8-2.2c-.6.8-1.4,1.4-2.2,1.9h0ZM349.3,270.2c-.4.3-.8.6-1.1.9-.3.4-.6.7-.8,1.2-.2.4-.3.9-.3,1.4s.1,1,.3,1.4.5.8.8,1.1c.3.3.7.5,1.2.7.4.2.9.2,1.4.2.9,0,1.6-.2,2.3-.7.7-.5,1.3-1.1,1.7-1.7l-4.3-5.2c-.4.2-.8.5-1.2.7ZM349.8,262.7c-.4.4-.7.9-.7,1.6s0,.6.2.9c.1.3.3.6.5.9s.4.6.6.9.4.5.6.8c.3-.2.6-.4.9-.6s.6-.5.9-.8.5-.6.6-.9c.2-.3.2-.7.2-1.1,0-.7-.2-1.3-.7-1.6s-1-.6-1.6-.6-1.2.2-1.6.6h.1Z"/>
  <path class="cls-1" d="M389.2,260.9v7.4h10.2v-7.4h1.6v17.1h-1.6v-8.3h-10.2v8.3h-1.6v-17.1h1.6Z"/>
  <path class="cls-1" d="M414.1,266c.3-1.1.8-2,1.5-2.8s1.5-1.5,2.5-2,2.2-.7,3.5-.7,2.5.2,3.5.7,1.8,1.1,2.5,2c.7.8,1.2,1.8,1.5,2.8.3,1.1.5,2.2.5,3.4s-.2,2.3-.5,3.4-.8,2-1.5,2.8-1.5,1.5-2.5,2-2.2.7-3.5.7-2.5-.2-3.5-.7-1.9-1.1-2.5-2c-.7-.8-1.2-1.8-1.5-2.8-.3-1.1-.5-2.2-.5-3.4s.2-2.3.5-3.4ZM415.6,272.2c.2.9.6,1.7,1.2,2.4.5.7,1.2,1.3,2,1.7.8.4,1.8.6,2.9.6s2.1-.2,2.9-.6,1.5-1,2-1.7.9-1.5,1.2-2.4c.2-.9.4-1.8.4-2.7s-.1-1.9-.4-2.8c-.2-.9-.6-1.7-1.2-2.4-.5-.7-1.2-1.3-2-1.7s-1.8-.6-2.9-.6-2.1.2-2.9.6-1.5,1-2,1.7-.9,1.5-1.2,2.4c-.2.9-.4,1.8-.4,2.8s.1,1.8.4,2.7Z"/>
  <path class="cls-1" d="M443.4,274.6c.3.6.7,1.1,1.2,1.4.5.4,1.1.6,1.8.8s1.4.2,2.2.2.9,0,1.5-.2c.5-.1,1-.3,1.5-.6s.8-.6,1.1-1.1c.3-.4.5-1,.5-1.6s-.1-.9-.3-1.2c-.2-.4-.5-.6-.8-.9-.3-.2-.7-.4-1.1-.6s-.8-.3-1.2-.4l-3.8-.9c-.5-.1-1-.3-1.5-.5s-.9-.4-1.2-.8-.6-.7-.9-1.2c-.2-.5-.3-1-.3-1.7s0-.9.2-1.5.5-1.1.9-1.6,1-.9,1.8-1.3c.8-.3,1.8-.5,3-.5s1.7.1,2.4.3c.8.2,1.4.6,2,1s1,1,1.4,1.7c.3.7.5,1.4.5,2.3h-1.6c0-.7-.2-1.2-.4-1.7s-.6-.9-1-1.2c-.4-.3-.9-.6-1.5-.7-.6-.2-1.1-.3-1.7-.3s-1.1,0-1.6.2c-.5.1-1,.3-1.4.6-.4.3-.7.6-.9,1-.2.4-.4,1-.4,1.6s0,.7.2,1c.1.3.3.5.6.8.2.2.5.4.8.5s.6.2,1,.3l4.2,1c.6.2,1.2.4,1.7.6s1,.5,1.4.9c.4.3.7.8,1,1.3.2.5.3,1.1.3,1.8v.8c0,.4-.1.7-.3,1-.2.4-.4.7-.6,1.1-.3.4-.7.7-1.2,1s-1.1.5-1.8.7c-.7.2-1.6.3-2.6.3s-1.9-.1-2.8-.3c-.9-.2-1.6-.6-2.2-1.1s-1.1-1.1-1.4-1.8c-.3-.8-.5-1.7-.4-2.7h1.6c0,.9.1,1.6.4,2.2h-.3Z"/>
  <path class="cls-1" d="M475,260.9c.8,0,1.5.1,2.1.3.6.2,1.2.5,1.6,1,.4.4.8.9,1,1.5s.4,1.3.4,2.1-.1,1.5-.4,2.1c-.2.6-.6,1.1-1,1.5s-1,.7-1.6,1-1.3.3-2.1.3h-6v7.3h-1.6v-17.1h7.6ZM474.6,269.3c1.1,0,2.1-.3,2.8-.9.7-.6,1.1-1.5,1.1-2.6s-.4-2.1-1.1-2.6-1.6-.9-2.8-.9h-5.6v7h5.6Z"/>
  <path class="cls-1" d="M494.2,260.9v17.1h-1.6v-17.1h1.6Z"/>
  <path class="cls-1" d="M519.5,260.9v1.4h-6v15.7h-1.6v-15.7h-6v-1.4h13.6Z"/>
  <path class="cls-1" d="M536.3,260.9l6.7,17.1h-1.8l-2.1-5.3h-7.8l-2.1,5.3h-1.7l6.9-17.1h1.9ZM538.6,271.3l-3.3-8.8-3.4,8.8h6.7Z"/>
  <path class="cls-1" d="M556.2,260.9v15.7h9.6v1.4h-11.2v-17.1h1.6Z"/>
  <path class="cls-1" d="M579.2,260.9v17.1h-1.6v-17.1h1.6Z"/>
  <path class="cls-1" d="M604.5,260.9v1.4h-6v15.7h-1.6v-15.7h-6v-1.4h13.6Z"/>
  <path class="cls-1" d="M614.2,260.9h1.9l5.6,8.7,5.6-8.7h1.9l-6.8,10.1v7.1h-1.6v-7.1l-6.7-10.1h0Z"/>
  <path class="cls-1" d="M664.2,260.9l6.7,17.1h-1.8l-2.1-5.3h-7.8l-2.1,5.3h-1.7l6.9-17.1h1.9ZM666.6,271.3l-3.3-8.8-3.4,8.8h6.7Z"/>
  <path class="cls-1" d="M690.4,260.9c.7,0,1.4,0,2,.3.6.2,1.2.4,1.7.8s.8.8,1.1,1.4.4,1.2.4,2-.3,2-.8,2.8c-.6.8-1.4,1.3-2.5,1.5h0c.6.1,1,.3,1.4.5s.7.5.9.8.4.7.5,1.2c0,.4.2.9.2,1.4v2.4c0,.5,0,.8.2,1.2,0,.4.2.7.4.9h-1.8c0-.2-.2-.4-.2-.6s0-.5,0-.7,0-.5,0-.7v-.6c0-.6,0-1.2-.2-1.8,0-.6-.2-1.1-.5-1.6-.2-.5-.6-.9-1-1.1-.4-.3-1-.4-1.8-.4h-6.2v7.6h-1.6v-17.1h7.8v-.2ZM690.2,269c.5,0,1,0,1.4-.2s.8-.4,1.2-.7.6-.6.8-1,.3-.9.3-1.4c0-1.1-.3-1.9-.9-2.5-.6-.6-1.5-.9-2.8-.9h-6.1v6.7h6.1Z"/>
  <path class="cls-1" d="M720.3,264.3c-.3-.5-.7-1-1.2-1.3-.5-.4-1-.6-1.6-.8-.6-.2-1.2-.3-1.8-.3-1.1,0-2.1.2-2.9.6s-1.5,1-2,1.7-.9,1.5-1.2,2.4c-.2.9-.4,1.8-.4,2.8s0,1.8.4,2.7c.2.9.6,1.7,1.2,2.4.5.7,1.2,1.3,2,1.7.8.4,1.8.6,2.9.6s1.5-.1,2.2-.4c.6-.3,1.2-.7,1.7-1.2s.8-1.1,1.1-1.7.5-1.4.6-2.1h1.6c0,1.1-.4,2-.7,2.9-.4.8-.9,1.6-1.5,2.2s-1.3,1-2.1,1.4c-.8.3-1.7.5-2.7.5s-2.5-.2-3.5-.7-1.9-1.1-2.5-2c-.7-.8-1.2-1.8-1.5-2.8-.3-1.1-.5-2.2-.5-3.4s.2-2.3.5-3.4.8-2,1.5-2.8,1.5-1.5,2.5-2,2.2-.7,3.5-.7,1.6.1,2.4.4c.8.2,1.5.6,2.1,1.1s1.2,1.1,1.6,1.7c.4.7.7,1.5.8,2.4h-1.6c0-.7-.4-1.2-.7-1.8h-.2Z"/>
  <path class="cls-1" d="M737,260.9v7.4h10.2v-7.4h1.6v17.1h-1.6v-8.3h-10.2v8.3h-1.6v-17.1h1.6Z"/>
  <path class="cls-1" d="M764,260.9v17.1h-1.6v-17.1h1.6Z"/>
  <path class="cls-1" d="M789.3,260.9v1.4h-6v15.7h-1.6v-15.7h-6v-1.4h13.6Z"/>
  <path class="cls-1" d="M812.7,260.9v1.4h-10.2v6.2h9.6v1.4h-9.6v6.8h10.3v1.4h-12v-17.1h11.9Z"/>
  <path class="cls-1" d="M836.9,264.3c-.3-.5-.7-1-1.2-1.3-.5-.4-1-.6-1.6-.8-.6-.2-1.2-.3-1.8-.3-1.1,0-2.1.2-2.9.6s-1.5,1-2,1.7-.9,1.5-1.2,2.4c-.2.9-.4,1.8-.4,2.8s0,1.8.4,2.7c.2.9.6,1.7,1.2,2.4.5.7,1.2,1.3,2,1.7.8.4,1.8.6,2.9.6s1.5-.1,2.2-.4c.6-.3,1.2-.7,1.7-1.2s.8-1.1,1.1-1.7.5-1.4.6-2.1h1.6c0,1.1-.4,2-.7,2.9-.4.8-.9,1.6-1.5,2.2s-1.3,1-2.1,1.4c-.8.3-1.7.5-2.7.5s-2.5-.2-3.5-.7-1.9-1.1-2.5-2c-.7-.8-1.2-1.8-1.5-2.8-.3-1.1-.5-2.2-.5-3.4s.2-2.3.5-3.4.8-2,1.5-2.8,1.5-1.5,2.5-2,2.2-.7,3.5-.7,1.6.1,2.4.4c.8.2,1.5.6,2.1,1.1s1.2,1.1,1.6,1.7c.4.7.7,1.5.8,2.4h-1.6c0-.7-.4-1.2-.7-1.8h-.2Z"/>
  <path class="cls-1" d="M863.7,260.9v1.4h-6v15.7h-1.6v-15.7h-6v-1.4h13.6Z"/>
  <path class="cls-1" d="M876.8,260.9v10.6c0,1,0,1.8.3,2.5s.6,1.3,1,1.7c.4.4,1,.8,1.6,1s1.3.3,2.1.3,1.5,0,2.1-.3c.6-.2,1.2-.5,1.6-1,.4-.4.8-1,1-1.7s.3-1.5.3-2.5v-10.6h1.6v11c0,.9,0,1.7-.4,2.5s-.6,1.5-1.2,2.1c-.5.6-1.2,1.1-2.1,1.4s-1.9.5-3.1.5-2.2-.2-3-.5-1.5-.8-2.1-1.4-.9-1.3-1.2-2.1-.4-1.6-.4-2.5v-11h1.9Z"/>
  <path class="cls-1" d="M909.6,260.9c.7,0,1.4,0,2,.3.6.2,1.2.4,1.7.8s.8.8,1.1,1.4.4,1.2.4,2-.3,2-.8,2.8-1.4,1.3-2.5,1.5h0c.6.1,1,.3,1.4.5s.7.5.9.8.4.7.5,1.2c0,.4.2.9.2,1.4v2.4c0,.4,0,.8.2,1.2s.2.7.4.9h-1.8c0-.2-.2-.4-.2-.6s0-.5,0-.7v-1.3c0-.6,0-1.2-.2-1.8,0-.6-.2-1.1-.5-1.6s-.6-.9-1-1.1-1-.4-1.8-.4h-6.2v7.6h-1.6v-17.1h7.8v-.2ZM909.5,269c.5,0,1,0,1.4-.2s.8-.4,1.2-.7.6-.6.8-1,.3-.9.3-1.4c0-1.1-.3-1.9-.9-2.5-.6-.6-1.5-.9-2.8-.9h-6.1v6.7h6.1Z"/>
  <path class="cls-1" d="M939.6,260.9v1.4h-10.2v6.2h9.6v1.4h-9.6v6.8h10.3v1.4h-12v-17.1h11.9Z"/>
</svg>